<svg width="200" height="42" viewBox="0 0 200 42" fill="none" xmlns="http://www.w3.org/2000/svg">
<path d="M42.0003 20.9959C42.0003 20.9959 41.7063 19.5598 40.8495 17.1494C40.4211 15.9401 39.7575 14.6215 38.8587 13.2694C37.9599 11.9173 36.8343 10.5987 35.4903 9.38937C34.8183 8.78468 34.0707 8.22199 33.2559 7.70969C32.4411 7.19739 31.5591 6.74388 30.6183 6.34916C29.6859 5.95444 28.7031 5.6521 27.7035 5.44214C26.7039 5.23218 25.6707 5.1062 24.6375 5.08941C23.6043 5.06421 22.5795 5.14819 21.5715 5.32456C20.5719 5.50093 19.5975 5.77807 18.6651 6.1392C17.7327 6.50033 16.8591 6.96224 16.0527 7.49134C15.2463 8.02043 14.4987 8.63351 13.8519 9.30538C12.5499 10.6575 11.5839 12.1608 10.9959 13.7061C10.3995 15.2514 10.1559 16.7883 10.2399 18.2328C10.3239 19.6774 10.6431 20.9539 11.1303 22.0205C11.6175 23.0871 12.2391 23.9521 12.9531 24.5232C14.3895 25.657 15.6327 26.3037 16.5147 26.648C17.3967 26.9923 17.9175 27.0763 17.9175 27.0763C18.6231 27.4542 19.5135 27.7146 20.3955 27.7902C21.2775 27.8658 22.1679 27.7734 22.9995 27.513C23.8311 27.2527 24.6123 26.8496 25.3011 26.2869C25.9899 25.7242 26.5779 25.0271 27.0819 24.0781C27.0819 24.0781 26.9979 24.5988 26.6535 25.4806C26.3091 26.3624 25.6623 27.6054 24.5199 29.0415C23.9487 29.7554 23.0835 30.3853 22.0167 30.864C20.9499 31.3511 19.6731 31.6702 18.2283 31.7542C16.7835 31.8382 15.2463 31.5862 13.7007 30.9983C12.1551 30.4105 10.6515 29.4446 9.29906 28.1429C8.62706 27.4878 8.01386 26.7488 7.48466 25.9425C6.95546 25.1363 6.50186 24.2629 6.13226 23.3306C5.76266 22.3984 5.49386 21.4326 5.31746 20.4248C5.14106 19.4254 5.06546 18.3924 5.09066 17.3594C5.11586 16.3264 5.23346 15.3018 5.45186 14.294C5.66186 13.2946 5.96426 12.312 6.35906 11.3798C6.75386 10.4476 7.20746 9.56573 7.71986 8.74269C8.23226 7.92805 8.79506 7.1806 9.39986 6.50873C10.6095 5.16499 11.9283 4.03961 13.2891 3.14099C14.6499 2.24236 15.9603 1.57889 17.1699 1.15058C19.5723 0.293943 21.0003 0 21.0003 0C25.3515 0 29.3919 1.31854 32.7435 3.5861C33.8607 4.34195 34.9023 5.19858 35.8515 6.1476C36.8007 7.09661 37.6575 8.13801 38.4135 9.25499C39.9255 11.489 41.0175 14.0253 41.5719 16.7631C41.8575 18.1321 42.0003 19.543 42.0003 20.9959Z" fill="#55C3BF"/>
<path d="M21 0C21 0 19.572 0.293943 17.1528 1.15058C15.9432 1.57889 14.6244 2.24236 13.272 3.14099C11.9196 4.03961 10.6008 5.16499 9.3828 6.50873C8.778 7.1806 8.2152 7.92805 7.7028 8.74269C7.1904 9.55733 6.7368 10.4392 6.342 11.3798C5.9472 12.3204 5.6448 13.2946 5.4348 14.294C5.2248 15.2934 5.0988 16.3264 5.0736 17.3594C5.0484 18.3924 5.1324 19.4254 5.3004 20.4248C5.4768 21.4242 5.754 22.3984 6.1152 23.3306C6.4764 24.2629 6.9384 25.1363 7.4676 25.9425C7.9968 26.7488 8.61 27.4962 9.282 28.1429C10.6344 29.4446 12.138 30.4105 13.6836 30.9983C15.2292 31.5862 16.7664 31.8382 18.2112 31.7542C19.656 31.6702 20.9328 31.3511 21.9996 30.864C23.0664 30.3769 23.9316 29.7554 24.5028 29.0415C25.6452 27.6054 26.2836 26.3624 26.6364 25.4806C26.9808 24.5988 27.0648 24.0781 27.0648 24.0781C27.4428 23.3726 27.7032 22.4824 27.7788 21.6006C27.8544 20.7188 27.762 19.8285 27.5016 18.9971C27.2496 18.1656 26.838 17.3846 26.2752 16.6959C25.7124 16.0073 25.0152 15.4194 24.066 14.9155C24.066 14.9155 24.5868 14.9995 25.4688 15.3438C26.3508 15.6881 27.594 16.3348 29.0304 17.477C29.7444 18.0481 30.366 18.9131 30.8532 19.9797C31.3404 21.0463 31.6596 22.3228 31.7436 23.7674C31.8276 25.2119 31.5756 26.7488 30.9876 28.2941C30.3912 29.8394 29.4336 31.3427 28.1232 32.6948C27.468 33.3667 26.7288 33.9798 25.9224 34.5089C25.116 35.0379 24.2424 35.4915 23.31 35.861C22.386 36.2305 21.4116 36.4993 20.4036 36.6756C19.404 36.852 18.3708 36.9276 17.3376 36.9024C16.3044 36.8772 15.2796 36.7596 14.2716 36.5413C13.272 36.3313 12.2892 36.029 11.3568 35.6342C10.4244 35.2395 9.5424 34.786 8.7192 34.2737C7.896 33.7614 7.1568 33.1987 6.4848 32.594C5.1408 31.3847 4.0152 30.0661 3.1164 28.7056C2.2176 27.3535 1.554 26.0349 1.1256 24.8255C0.294 22.4236 0 20.9959 0 20.9959C0 9.39776 9.3996 0 21 0Z" fill="#A4C939"/>
<path d="M41.9994 20.9951C41.9994 22.448 41.8566 23.8589 41.571 25.2279C41.0082 27.9573 39.9246 30.502 38.4126 32.736C37.6566 33.853 36.7998 34.8944 35.8506 35.8434C34.9014 36.7924 33.8598 37.6574 32.7426 38.4133C30.5082 39.925 27.9714 41.0168 25.233 41.5711C23.8638 41.8482 22.4526 41.9994 20.9994 41.9994C20.9994 41.9994 22.4358 41.7055 24.8466 40.8488C26.0562 40.4205 27.375 39.757 28.7274 38.8584C30.0798 37.9598 31.3986 36.8344 32.6082 35.4907C33.213 34.8188 33.7758 34.0713 34.2882 33.2567C34.8006 32.4421 35.2542 31.5602 35.649 30.6196C36.0438 29.679 36.3462 28.7048 36.5562 27.7054C36.7662 26.706 36.8922 25.673 36.909 24.64C36.9342 23.607 36.8502 22.5824 36.6738 21.5746C36.4974 20.5752 36.2202 19.601 35.859 18.6688C35.4978 17.7365 35.0358 16.8631 34.5066 16.0569C33.9774 15.2506 33.3642 14.5032 32.6922 13.8565C31.3398 12.5548 29.8362 11.5889 28.2906 11.0011C26.745 10.4048 25.2078 10.1612 23.763 10.2452C22.3182 10.3292 21.0414 10.6483 19.9746 11.1354C18.9078 11.6225 18.0426 12.244 17.4714 12.9579C16.329 14.394 15.6906 15.6369 15.3378 16.5188C14.9934 17.4006 14.9094 17.9213 14.9094 17.9213C14.5314 18.6268 14.271 19.517 14.1954 20.3988C14.1198 21.2806 14.2122 22.1709 14.4726 23.0023C14.7246 23.8337 15.1362 24.6148 15.699 25.3035C16.2618 25.9921 16.959 26.58 17.9082 27.0839C17.9082 27.0839 17.3874 26.9999 16.5054 26.6556C15.6234 26.3113 14.3802 25.6646 12.9438 24.5308C12.2298 23.9597 11.5998 23.0947 11.121 22.0281C10.6338 20.9615 10.3146 19.685 10.2306 18.2404C10.1466 16.7959 10.3986 15.259 10.9866 13.7137C11.583 12.1684 12.5406 10.6651 13.8426 9.31299C14.4978 8.64112 15.237 8.02804 16.0434 7.49894C16.8498 6.96984 17.7234 6.51633 18.6558 6.14681C19.5882 5.77728 20.5542 5.50853 21.5622 5.33216C22.5618 5.1558 23.595 5.08021 24.6282 5.09701C25.6614 5.12221 26.6862 5.23978 27.6942 5.44974C28.6938 5.6597 29.6766 5.96204 30.609 6.35676C31.5414 6.75149 32.4234 7.205 33.2466 7.7173C34.0614 8.2296 34.809 8.79229 35.481 9.39697C36.825 10.6063 37.9506 11.9249 38.8494 13.277C39.7482 14.6291 40.4118 15.9477 40.8402 17.1571C41.7054 19.559 41.9994 20.9951 41.9994 20.9951Z" fill="#E44A65"/>
<path d="M14.9184 17.9145C14.9184 17.9145 15.0024 17.3938 15.3468 16.512C15.6912 15.6301 16.338 14.3872 17.4804 12.9511C18.0516 12.2372 18.9168 11.6073 19.9836 11.1286C21.0504 10.6415 22.3272 10.3224 23.772 10.2384C25.2168 10.1544 26.754 10.4064 28.2996 10.9943C29.8452 11.5905 31.3488 12.548 32.7012 13.8497C33.3732 14.5048 33.9864 15.2438 34.5156 16.0501C35.0448 16.8563 35.4984 17.7297 35.868 18.662C36.2376 19.5942 36.5064 20.56 36.6828 21.5678C36.8592 22.5672 36.9348 23.6002 36.918 24.6332C36.8928 25.6662 36.7752 26.6908 36.5652 27.6986C36.3552 28.698 36.0528 29.6806 35.658 30.6128C35.2632 31.545 34.8096 32.4269 34.2972 33.2499C33.7848 34.0645 33.222 34.812 32.6172 35.4839C31.4076 36.8276 30.0888 37.953 28.7364 38.8516C27.384 39.7502 26.0652 40.4137 24.8556 40.842C22.4364 41.6986 21 41.9926 21 41.9926C19.5468 41.9926 18.1356 41.8498 16.7664 41.5643C7.1988 39.6075 0 31.1419 0 20.9967C0 20.9967 0.294 22.4244 1.1508 24.8431C1.5792 26.0525 2.2428 27.371 3.1416 28.7232C4.0404 30.0753 5.166 31.3939 6.51 32.6116C7.182 33.2163 7.9296 33.779 8.7444 34.2913C9.5592 34.8036 10.4412 35.2655 11.382 35.6518C12.3144 36.0466 13.2972 36.3489 14.2968 36.5588C15.2964 36.7688 16.3296 36.8948 17.3628 36.92C18.396 36.9452 19.4292 36.8696 20.4288 36.6932C21.4284 36.5169 22.4028 36.2397 23.3352 35.8786C24.2592 35.5091 25.1412 35.0555 25.9476 34.5264C26.754 33.9974 27.5016 33.3927 28.1484 32.7124C29.4504 31.3687 30.4164 29.857 31.0128 28.3117C31.6092 26.7664 31.8612 25.2295 31.7688 23.785C31.6848 22.3404 31.3656 21.0639 30.8784 19.9973C30.3912 18.9307 29.7696 18.0657 29.0556 17.4946C27.6192 16.3524 26.376 15.7141 25.494 15.3614C24.612 15.0171 24.0912 14.9331 24.0912 14.9331C23.3856 14.5552 22.4952 14.2948 21.6132 14.2192C20.7312 14.1436 19.8408 14.236 19.0092 14.4964C18.1776 14.7483 17.3964 15.1598 16.7076 15.7225C16.0104 16.26 15.4224 16.9655 14.9184 17.9145Z" fill="#EFA022"/>
<path d="M17.7998 27.0099C18.6314 27.455 19.5218 27.7069 20.4038 27.7825C21.2858 27.8581 22.1762 27.7657 23.0078 27.5054C23.8394 27.245 24.6206 26.8335 25.3094 26.2792C25.9982 25.7249 26.5778 25.0279 27.023 24.1964C27.4682 23.365 27.7202 22.4748 27.7958 21.5929C27.8714 20.7111 27.779 19.8209 27.5186 18.9895C27.2582 18.158 26.8466 17.377 26.2922 16.6883C25.7378 15.9996 25.0406 15.4202 24.209 14.975C23.3774 14.5299 22.487 14.278 21.605 14.2024C20.723 14.1268 19.8326 14.2192 19.001 14.4795C18.1694 14.7399 17.3882 15.1514 16.6994 15.7057C16.0106 16.26 15.431 16.9571 14.9858 17.7885C14.5406 18.6199 14.2886 19.5102 14.213 20.392C14.1374 21.2738 14.2298 22.164 14.4902 22.9955C14.7506 23.8269 15.1622 24.608 15.7166 25.2966C16.271 25.9853 16.9682 26.5648 17.7998 27.0099Z" fill="#067BC2"/>
<path d="M57.0221 26.9641C58.279 26.9641 59.3384 26.587 60.0746 25.8508C60.8108 25.1146 61.2597 24.0014 61.2597 22.511V14.2155H58.9793V22.4392C58.9793 24.1271 58.1713 24.9171 56.9862 24.9171C55.9268 24.9171 55.1906 24.3785 54.4544 23.4268L53 24.9351C53.826 26.0663 55.0829 26.9641 57.0221 26.9641Z" fill="white"/>
<path d="M62.5737 26.7845H64.8361L66.1289 23.75H72.0723L73.3471 26.7845H75.6814L70.151 14.1257H68.1041L62.5737 26.7845ZM66.9369 21.7928L69.0916 16.7652L71.2643 21.7928H66.9369Z" fill="white"/>
<path d="M77.6572 26.7845H79.8299V17.8066L83.7622 23.6961H83.834L87.8023 17.7707V26.7845H90.0108V14.2155H87.6586L83.834 20.1588L80.0095 14.2155H77.6572V26.7845Z" fill="white"/>
<path d="M93.0663 26.7845H97.7527C101.703 26.7845 104.432 24.0373 104.432 20.5V20.4641C104.432 16.9268 101.703 14.2155 97.7527 14.2155H93.0663V26.7845ZM97.7527 16.2265C100.392 16.2265 102.116 18.0401 102.116 20.5V20.5359C102.116 22.9959 100.392 24.7735 97.7527 24.7735H95.2748V16.2265H97.7527Z" fill="white"/>
<path d="M112.929 27C116.79 27 119.519 24.0373 119.519 20.5V20.4641C119.519 16.9268 116.826 14 112.965 14C109.105 14 106.376 16.9627 106.376 20.5V20.5359C106.376 24.0732 109.069 27 112.929 27ZM112.965 24.953C110.47 24.953 108.692 22.942 108.692 20.5V20.4641C108.692 18.0221 110.434 16.029 112.929 16.029C115.425 16.029 117.203 18.058 117.203 20.5V20.5359C117.203 22.9779 115.461 24.953 112.965 24.953Z" fill="white"/>
<path d="M127.161 26.982C130.447 26.982 132.566 25.0967 132.566 21.3439V14.2155H130.358V21.4517C130.358 23.768 129.154 24.9351 127.197 24.9351C125.222 24.9351 124.019 23.6961 124.019 21.3619V14.2155H121.811V21.4517C121.811 25.0967 123.893 26.982 127.161 26.982Z" fill="white"/>
<path d="M141.379 27C143.606 27 145.384 26.1022 146.623 25.0428V19.7638H141.272V21.6851H144.486V24.0373C143.714 24.6119 142.636 24.989 141.451 24.989C138.884 24.989 137.178 23.0856 137.178 20.5V20.4641C137.178 18.058 138.937 16.029 141.254 16.029C142.852 16.029 143.803 16.5497 144.773 17.3757L146.174 15.7058C144.881 14.6105 143.534 14 141.344 14C137.555 14 134.861 16.9807 134.861 20.5V20.5359C134.861 24.1989 137.447 27 141.379 27Z" fill="white"/>
<path d="M149.319 26.7845H151.528V21.4876H157.525V26.7845H159.733V14.2155H157.525V19.4406H151.528V14.2155H149.319V26.7845Z" fill="white"/>
<path d="M162.782 26.7845H164.954V17.8425L171.885 26.7845H173.735V14.2155H171.562V22.9061L164.829 14.2155H162.782V26.7845Z" fill="white"/>
<path d="M181.941 26.982C185.227 26.982 187.346 25.0967 187.346 21.3439V14.2155H185.137V21.4517C185.137 23.768 183.934 24.9351 181.977 24.9351C180.002 24.9351 178.799 23.6961 178.799 21.3619V14.2155H176.59V21.4517C176.59 25.0967 178.673 26.982 181.941 26.982Z" fill="white"/>
<path d="M193.286 26.7845H195.513V16.2624H199.499V14.2155H189.3V16.2624H193.286V26.7845Z" fill="white"/>
</svg>
