<svg width="196" height="196" viewBox="0 0 196 196" fill="none" xmlns="http://www.w3.org/2000/svg">
<rect width="196" height="196" rx="98" fill="#F5F5F8"/>
<g clip-path="url(#clip0)">
<path d="M113.223 60.0022L113.049 60.6612L112.459 62.7115L111.903 64.7618L111.174 67.3246L107.91 78.9673L107.042 82.0061L107.008 82.116L106.834 82.7384L106.66 83.3608L106.626 83.5072L104.265 91.8548L103.883 93.2095L103.57 94.2712L103.362 94.9669L101.834 100.349L101.209 102.582L101.105 102.912L100.896 103.607L100.688 104.34L100.306 105.694L99.6465 108.001L99.2298 109.429L97.7715 114.591L91.1743 137.986H62.0076C61.3826 137.986 60.8965 137.474 60.8965 136.815V94.9302L61.1048 94.198L61.9382 91.1958L64.0909 83.5072L64.2645 82.8848L64.2993 82.7384L65.3409 79.0039L68.3965 68.1667L74.1257 47.8469L86.5909 51.7644L89.5423 52.6797L99.577 55.8284L101.035 56.2677L104.681 57.4027L111.417 59.5262L113.223 60.0022Z" fill="#D3DBDD"/>
<path d="M71.1044 134.325C68.2572 133.446 66.5905 130.298 67.4239 127.332C68.2572 124.366 71.2433 122.682 74.1253 123.598C76.9725 124.513 78.6391 127.625 77.8058 130.59C76.9725 133.556 73.9516 135.24 71.1044 134.325Z" fill="#608C74"/>
<path d="M85.0986 84.6799C82.2513 83.8013 80.5847 80.6526 81.418 77.687C82.2513 74.7214 85.2375 73.0373 88.1194 73.9526C90.9666 74.8313 92.6333 77.9799 91.8 80.9455C90.9319 83.8745 87.9458 85.5586 85.0986 84.6799Z" fill="#608C74"/>
<path d="M108.951 62.711L101.833 60.4777L91.6597 57.2924L87.3542 55.9378L84.4028 55.0225L76.4861 52.5328C76.2778 52.6427 76.0694 52.7159 75.8611 52.8257L69.3333 76.0013L68.5 79.0035L67.0069 84.3122L63.6042 96.4309L61 105.584V121.181L61.4514 119.533L63.8125 111.112L70.7917 86.2893L72.8403 78.9669L74.1944 74.1707L76.5903 65.8963L77.5278 62.6378C77.9444 62.7843 78.3611 62.8575 78.7778 62.8941C81.3125 63.1138 83.6736 61.6493 84.3681 59.1963L84.9236 59.3793L89.2292 60.734L98.7778 63.7362L98.9514 63.8094C98.4306 65.64 98.9861 67.5805 100.271 68.9717C100.896 69.6674 101.729 70.2165 102.667 70.546C102.736 70.5827 102.806 70.5827 102.875 70.6193L100.514 79.0401L100.028 80.8341L99.6458 82.1887L99.4722 82.8111L99.2639 83.58L97.6667 89.2183L97.3194 90.4997L94.8889 99.1402L94.4375 100.678L94.0556 102.033L92.1458 108.842L91.4861 111.222L89.1597 119.533L83.9514 137.986H88.3264L89.3681 134.251L89.5764 133.482L95.5486 112.284L95.8611 111.149L96.3125 109.538L97.0764 106.829L97.1111 106.756L97.3889 105.767L97.8056 104.266L98.1875 102.911L98.6389 101.264L101.243 92.0374L101.625 90.7194L102.042 89.1817L103.639 83.5434L103.812 82.8844L103.882 82.7013L104.264 81.3833L104.889 79.1133L109.299 63.4067C109.194 63.0772 109.09 62.8941 108.951 62.711Z" fill="#9A9FB9"/>
<path d="M90.9996 102.947C90.9649 102.361 90.8954 101.812 90.7566 101.263C90.7566 101.19 90.7218 101.117 90.7218 101.043C90.6524 100.714 90.5482 100.348 90.4441 100.018C90.2357 99.3225 89.9232 98.6269 89.576 97.9679C88.7427 96.4301 87.5968 95.0389 86.1732 94.0137C85.8955 93.7941 85.583 93.611 85.2705 93.4279C84.5413 92.9886 83.7427 92.6225 82.9093 92.3662C82.458 92.2197 82.0066 92.1099 81.5205 92.0367C81.451 92.0367 81.3816 92.0001 81.3121 92.0001C80.826 91.9268 80.3746 91.8902 79.8885 91.8902C79.8538 91.8902 79.8538 91.8902 79.8191 91.8902C78.7427 91.8536 77.701 92.0367 76.6941 92.293C76.3816 92.3662 76.0691 92.476 75.7913 92.5859C75.3052 92.7689 74.8191 92.9886 74.333 93.2815C72.458 94.3432 70.826 95.9908 69.7496 98.0411C69.3677 98.7733 69.0552 99.5788 68.8121 100.421C67.0413 106.755 70.4441 113.418 76.451 115.285C78.7774 116.018 81.1732 115.908 83.326 115.139C86.6593 113.931 89.4371 111.112 90.5482 107.267V107.231C90.826 106.315 90.9649 105.364 90.9996 104.448C91.0343 103.899 91.0343 103.423 90.9996 102.947ZM82.9441 108.952C82.3538 109.135 81.6941 109.135 81.0343 108.988L81.3816 107.377L81.5899 106.425C82.3538 106.535 82.9441 106.425 83.3955 106.096C83.708 105.839 83.951 105.547 84.0552 105.107C84.1941 104.521 84.1246 104.009 83.8468 103.533C83.708 103.313 83.4649 103.13 83.1177 103.02C82.5968 102.874 82.0066 103.02 81.3121 103.533C80.826 103.936 80.0968 104.558 79.0899 105.4C78.326 106.059 77.6316 106.462 77.076 106.718C77.0413 106.755 77.0066 106.755 76.9371 106.755C76.2774 106.974 75.6524 107.011 75.0274 106.791C73.9163 106.462 73.1871 105.656 72.9093 104.375C72.8746 104.229 72.8399 104.045 72.8399 103.899C72.8052 103.533 72.8052 103.167 72.8746 102.727L71.5899 102.325L72.1455 100.421L73.4302 100.824C73.6385 100.311 73.9163 99.8351 74.2288 99.469C74.6107 99.0296 75.0621 98.7001 75.5482 98.517C76.0343 98.334 76.5899 98.2607 77.1455 98.3706L76.7635 101.007C76.2427 100.933 75.7913 101.007 75.4093 101.263C75.1316 101.446 74.9232 101.776 74.8191 102.215C74.6802 102.691 74.7149 103.13 74.958 103.46C75.1316 103.753 75.4093 103.936 75.7913 104.045C76.3468 104.229 77.0413 104.045 77.8052 103.533C78.1177 103.35 78.4649 103.02 78.9163 102.581C79.4718 102.068 79.8191 101.739 80.0274 101.592C80.3052 101.373 80.583 101.153 80.8607 101.007C81.208 100.787 81.5205 100.641 81.833 100.494C82.076 100.384 82.3191 100.311 82.5274 100.274C82.9093 100.201 83.2913 100.165 83.5691 100.201C83.6385 100.201 83.7427 100.238 83.8121 100.238C84.1593 100.348 84.4371 100.457 84.7149 100.641C85.1316 100.933 85.5135 101.336 85.7566 101.849C85.8607 102.068 85.9649 102.325 86.0343 102.581C86.1385 102.984 86.1732 103.423 86.1385 103.936C86.1038 104.155 86.1038 104.375 86.0343 104.631L87.2843 104.997L87.2149 105.217L86.7288 106.938L85.4093 106.535C85.1663 107.084 84.8885 107.524 84.5413 107.853C84.0899 108.476 83.5343 108.768 82.9441 108.952Z" fill="#608C74"/>
<path d="M126.833 66.8482L119.958 76.4406L118.118 79.0035L113.396 85.5937L112.597 86.6921L107.528 93.7582L106.729 94.8566L101.243 102.509L101.035 102.838L100.236 103.973L99.6111 104.852L99.4375 105.071L98.3958 106.499L98.3611 106.536L97.9445 107.122L96.3125 109.392L94.8195 111.479L89.0903 119.46L78.9167 133.666L78.5694 134.178L75.8958 137.913H62.1111C61.4861 137.913 61 137.4 61 136.741V87.6074L61.6597 86.6921L63.9167 83.5068L64.3681 82.8844L64.4722 82.7379L66.7292 79.5893L67.1806 78.9669L69.3333 75.9647L76.5903 65.8963L78.7431 62.8575L82.2847 57.9148L84.3681 54.9859L86.7292 51.6908L94.4028 41L109.16 52.7891L116.799 58.9034L121.382 62.5646L125.792 66.0794L126.833 66.8482Z" fill="#E8EEF0"/>
<path d="M92.2845 79.5164C89.8887 77.6126 89.4026 74.0978 91.1734 71.6082C92.9442 69.1552 96.3123 68.6792 98.6734 70.5831C101.069 72.4869 101.555 76.0017 99.7845 78.4913C98.0137 80.9443 94.6456 81.4203 92.2845 79.5164Z" fill="#608C74"/>
<path d="M121.938 67.7631L121.556 67.4336L119.576 65.8593L113.847 61.2827L113.049 60.6603L111.556 59.4521L106.59 55.498L94.9236 46.2351C94.6806 46.2351 94.4722 46.2717 94.2639 46.3083L89.6806 52.6422L87.3194 55.9373L84.8889 59.3423L74.2292 74.1702L70.7917 78.9664L68.1181 82.7375L67.7708 83.2134L67.0069 84.2752L62.0417 91.1949L61 92.6594V100.018L63.5694 96.4304L70.7917 86.3255L76.0347 79.003L89.1597 60.6969L91.5903 57.292L92.4583 56.0838C94.7847 57.9144 97.875 57.768 99.6458 55.7909C99.7847 55.6444 99.8889 55.5346 99.9931 55.3515L101.104 56.2302L103.778 58.3538L111.208 64.2483L111.833 64.7609L112.181 65.0172C111.625 65.786 111.312 66.7013 111.243 67.6166C111.104 69.5205 111.903 71.5341 113.569 72.8522L109.264 78.9664L107.076 82.0419L107.007 82.1517L106.59 82.7375L106.243 83.2134L106.035 83.5063L102.076 89.0348L101.139 90.3528L100.34 91.4878L94.8889 99.1031L93.9861 100.385L93.1875 101.483L91.1042 104.412L89.7153 106.352L83.4306 115.139L76.4167 124.915L70.3403 133.409L70.0625 133.812L69.7847 134.214L68.1875 136.448C65.9306 134.654 62.9097 134.763 61.1389 136.594V136.777C61.1389 137.436 61.625 137.949 62.25 137.949H72.3889L75.2361 133.958L75.3403 133.812L75.6181 133.409L78.0486 130.004L91.5556 111.185L92.8403 109.391L96.9722 103.606L97.7708 102.508L98.7431 101.153L103.708 94.2703L104.333 93.3916L104.611 93.0255L105.132 92.2933L110.306 85.0807L110.722 84.5315L111.104 83.9823L111.382 83.5796L111.938 82.8107L114.611 79.0763L117.979 74.3533L122.146 68.5319C122.042 68.239 122.007 68.0194 121.938 67.7631Z" fill="#A5CA39"/>
<path d="M82.9109 92.3302C82.4595 92.1838 82.0082 92.0739 81.522 92.0007C81.4526 92.0007 81.3832 91.9641 81.3137 91.9641C81.1054 92.257 80.9318 92.5865 80.7234 92.8794C80.7234 92.8794 80.7234 92.8794 80.7234 92.916C80.654 92.9892 80.6193 93.0991 80.5498 93.2089C80.4804 93.3187 80.4457 93.392 80.3762 93.5018C80.3415 93.6116 80.272 93.6849 80.2026 93.7947C80.1332 93.9045 80.0984 94.0144 80.029 94.0876C79.9943 94.1242 79.9943 94.1974 79.9595 94.234C79.9595 94.234 79.9943 94.234 79.9943 94.1974C80.029 94.1608 80.0984 94.1608 80.1332 94.1242C80.2373 94.0876 80.3415 94.051 80.4457 94.0144C81.1054 93.7581 81.5568 93.575 81.7998 93.5018C82.5637 93.2455 83.2582 93.1357 83.8484 93.1357C84.1262 93.1357 84.3693 93.1357 84.5776 93.1723C84.8207 93.2089 85.029 93.2821 85.2373 93.3553C84.5429 92.9526 83.7443 92.5865 82.9109 92.3302ZM76.4873 93.2455C76.4873 93.2821 76.4873 93.3187 76.5221 93.3553C76.5915 93.6849 76.7998 93.9778 77.0776 94.234C77.2859 94.3805 77.529 94.4903 77.8068 94.5636L76.4873 93.2455ZM82.9109 92.3302C82.4595 92.1838 82.0082 92.0739 81.522 92.0007C81.4526 92.0007 81.3832 91.9641 81.3137 91.9641C81.1054 92.257 80.9318 92.5865 80.7234 92.8794C80.7234 92.8794 80.7234 92.8794 80.7234 92.916C80.654 92.9892 80.6193 93.0991 80.5498 93.2089C80.4804 93.3187 80.4457 93.392 80.3762 93.5018C80.3415 93.6116 80.272 93.6849 80.2026 93.7947C80.1332 93.9045 80.0984 94.0144 80.029 94.0876C79.9943 94.1242 79.9943 94.1974 79.9595 94.234C79.9595 94.234 79.9943 94.234 79.9943 94.1974C80.029 94.1608 80.0984 94.1608 80.1332 94.1242C80.2373 94.0876 80.3415 94.051 80.4457 94.0144C81.1054 93.7581 81.5568 93.575 81.7998 93.5018C82.5637 93.2455 83.2582 93.1357 83.8484 93.1357C84.1262 93.1357 84.3693 93.1357 84.5776 93.1723C84.8207 93.2089 85.029 93.2821 85.2373 93.3553C84.5429 92.9526 83.7443 92.5865 82.9109 92.3302ZM76.4873 93.2455C76.4873 93.2821 76.4873 93.3187 76.5221 93.3553C76.5915 93.6849 76.7998 93.9778 77.0776 94.234C77.2859 94.3805 77.529 94.4903 77.8068 94.5636L76.4873 93.2455ZM82.9109 92.3302C82.4595 92.1838 82.0082 92.0739 81.522 92.0007C81.4526 92.0007 81.3832 91.9641 81.3137 91.9641C81.1054 92.257 80.9318 92.5865 80.7234 92.8794C80.7234 92.8794 80.7234 92.8794 80.7234 92.916C80.654 92.9892 80.6193 93.0991 80.5498 93.2089C80.4804 93.3187 80.4457 93.392 80.3762 93.5018C80.3415 93.6116 80.272 93.6849 80.2026 93.7947C80.1332 93.9045 80.0984 94.0144 80.029 94.0876C79.9943 94.1242 79.9943 94.1974 79.9595 94.234C79.9595 94.234 79.9943 94.234 79.9943 94.1974C80.029 94.1608 80.0984 94.1608 80.1332 94.1242C80.2373 94.0876 80.3415 94.051 80.4457 94.0144C81.1054 93.7581 81.5568 93.575 81.7998 93.5018C82.5637 93.2455 83.2582 93.1357 83.8484 93.1357C84.1262 93.1357 84.3693 93.1357 84.5776 93.1723C84.8207 93.2089 85.029 93.2821 85.2373 93.3553C84.5429 92.9526 83.7443 92.5865 82.9109 92.3302ZM76.4873 93.2455C76.4873 93.2821 76.4873 93.3187 76.5221 93.3553C76.5915 93.6849 76.7998 93.9778 77.0776 94.234C77.2859 94.3805 77.529 94.4903 77.8068 94.5636L76.4873 93.2455ZM90.5845 89.2914C90.3415 88.8154 90.029 88.3761 89.7165 87.9367C89.1609 87.2045 88.5359 86.5455 87.8068 85.9597C87.772 85.9231 87.7373 85.8865 87.7026 85.8865C87.6679 85.8498 87.5984 85.8132 87.5637 85.7766C87.5637 85.7766 87.5637 85.7766 87.529 85.7766C87.1471 85.4837 86.7651 85.2274 86.3484 85.0078C86.279 84.9711 86.2443 84.9345 86.1748 84.8979C85.7234 84.6416 85.2373 84.422 84.7512 84.2389C84.2998 84.0558 83.8484 83.946 83.397 83.8362C82.772 83.6897 82.1123 83.5799 81.4873 83.5433C81.0707 83.5067 80.6193 83.5067 80.2026 83.5433C80.029 83.5433 79.8554 83.5799 79.6471 83.5799C76.6262 83.9094 73.7443 85.5203 71.7998 88.2662C69.7165 91.1586 69.0915 94.7466 69.7512 98.0417C70.2026 100.238 71.2443 102.289 72.8415 103.936C73.1887 104.302 73.6054 104.669 73.9873 104.998C74.9248 105.767 75.9665 106.353 77.0429 106.719C78.4665 107.231 79.9248 107.451 81.3832 107.378C83.4318 107.268 85.4457 106.572 87.1818 105.364C87.4596 105.181 87.7373 104.961 87.9804 104.742C88.6748 104.156 89.2998 103.46 89.8554 102.655C90.1679 102.216 90.4804 101.74 90.7234 101.227C90.8623 100.934 91.0012 100.678 91.1401 100.385C91.2096 100.238 91.2443 100.129 91.3137 99.9822C91.4179 99.6893 91.522 99.3964 91.6262 99.1035C92.6332 95.845 92.2512 92.257 90.5845 89.2914ZM86.3484 101.117L85.2721 100.238C85.0984 100.422 84.8901 100.605 84.6818 100.751C84.5429 100.861 84.404 100.934 84.2651 101.007C84.1609 101.044 84.0915 101.117 83.9873 101.154C83.397 101.447 82.8068 101.556 82.1818 101.483C81.7304 101.447 81.2443 101.3 80.8276 101.081C80.6887 101.007 80.5498 100.934 80.3762 100.824L81.7651 98.6275C81.8345 98.6641 81.904 98.7007 81.9734 98.7373C82.5637 99.0302 83.0845 99.1401 83.5707 98.9936C83.9526 98.8838 84.2651 98.6641 84.5082 98.298C84.8207 97.822 84.9248 97.3461 84.8554 96.8335C84.8554 96.7969 84.8554 96.7969 84.8554 96.7603C84.7859 96.504 84.6123 96.2477 84.3345 95.9914C83.9873 95.6985 83.5012 95.6253 82.9109 95.6985C82.772 95.7351 82.6332 95.7351 82.4943 95.7718C81.9387 95.9548 81.0707 96.2477 79.9595 96.6505C79.8901 96.6871 79.8554 96.6871 79.7859 96.7237C78.779 97.0532 77.9457 97.2362 77.3554 97.1996C76.6957 97.163 76.0707 96.9433 75.5498 96.5406C74.6123 95.8084 74.2304 94.7832 74.3693 93.5018C74.3693 93.4286 74.404 93.3553 74.404 93.2455C74.4734 92.8062 74.6471 92.3668 74.8901 91.9275L73.8137 91.0854L74.1957 90.5362L74.9248 89.5111L75.9665 90.3531C76.3484 89.9504 76.7304 89.6209 77.1471 89.4012C77.6679 89.1083 78.154 88.9619 78.7096 88.9985C79.0915 88.9985 79.4387 89.0717 79.7859 89.2182C79.9248 89.2914 80.0984 89.3646 80.2373 89.4378L79.8554 90.1335L78.9873 91.781C78.5359 91.5247 78.0846 91.4149 77.6332 91.5247C77.3207 91.598 77.0082 91.8176 76.7651 92.2204C76.7304 92.257 76.7304 92.2936 76.6957 92.3302C76.4873 92.6597 76.4179 92.9892 76.4526 93.3187C76.4526 93.3553 76.4526 93.392 76.4873 93.4286C76.5568 93.7581 76.7651 94.051 77.0429 94.3073C77.2512 94.4537 77.4943 94.5636 77.772 94.6368C77.9457 94.6734 78.1193 94.6734 78.3276 94.6734C78.3971 94.6734 78.4318 94.6734 78.5012 94.6734C78.7096 94.6734 78.8832 94.6368 79.1262 94.6002C79.3693 94.5636 79.6471 94.4537 79.9943 94.3439C79.9943 94.3439 80.029 94.3439 80.029 94.3073C80.0637 94.2707 80.1332 94.2707 80.1679 94.234C80.2721 94.1974 80.3762 94.1608 80.4804 94.1242C81.1401 93.8679 81.5915 93.6849 81.8345 93.6116C82.5984 93.3553 83.2929 93.2455 83.8832 93.2455C84.1609 93.2455 84.404 93.2455 84.6123 93.2821C84.8554 93.3187 85.0637 93.392 85.2721 93.4652C85.4804 93.5384 85.6887 93.6482 85.8276 93.7581C85.9665 93.8313 86.0707 93.9411 86.1748 94.051C86.6957 94.5636 87.0082 95.2226 87.1123 96.028C87.147 96.2111 87.1471 96.4308 87.1471 96.6138C87.1123 97.0532 87.0082 97.4925 86.8346 98.0051C86.8346 98.0417 86.7998 98.0783 86.7998 98.1149C86.6957 98.298 86.5915 98.5177 86.4873 98.7373L87.5637 99.5794L86.3484 101.117ZM76.4873 93.2455C76.4873 93.2821 76.4873 93.3187 76.5221 93.3553C76.5915 93.6849 76.7998 93.9778 77.0776 94.234C77.2859 94.3805 77.529 94.4903 77.8068 94.5636L76.4873 93.2455ZM82.9109 92.3302C82.4595 92.1838 82.0082 92.0739 81.522 92.0007C81.4526 92.0007 81.3832 91.9641 81.3137 91.9641C81.1054 92.257 80.9318 92.5865 80.7234 92.8794C80.7234 92.8794 80.7234 92.8794 80.7234 92.916C80.654 92.9892 80.6193 93.0991 80.5498 93.2089C80.4804 93.3187 80.4457 93.392 80.3762 93.5018C80.3415 93.6116 80.272 93.6849 80.2026 93.7947C80.1332 93.9045 80.0984 94.0144 80.029 94.0876C79.9943 94.1242 79.9943 94.1974 79.9595 94.234C79.9595 94.234 79.9943 94.234 79.9943 94.1974C80.029 94.1608 80.0984 94.1608 80.1332 94.1242C80.2373 94.0876 80.3415 94.051 80.4457 94.0144C81.1054 93.7581 81.5568 93.575 81.7998 93.5018C82.5637 93.2455 83.2582 93.1357 83.8484 93.1357C84.1262 93.1357 84.3693 93.1357 84.5776 93.1723C84.8207 93.2089 85.029 93.2821 85.2373 93.3553C84.5429 92.9526 83.7443 92.5865 82.9109 92.3302ZM76.4873 93.2455C76.4873 93.2821 76.4873 93.3187 76.5221 93.3553C76.5915 93.6849 76.7998 93.9778 77.0776 94.234C77.2859 94.3805 77.529 94.4903 77.8068 94.5636L76.4873 93.2455ZM82.9109 92.3302C82.4595 92.1838 82.0082 92.0739 81.522 92.0007C81.4526 92.0007 81.3832 91.9641 81.3137 91.9641C81.1054 92.257 80.9318 92.5865 80.7234 92.8794C80.7234 92.8794 80.7234 92.8794 80.7234 92.916C80.654 92.9892 80.6193 93.0991 80.5498 93.2089C80.4804 93.3187 80.4457 93.392 80.3762 93.5018C80.3415 93.6116 80.272 93.6849 80.2026 93.7947C80.1332 93.9045 80.0984 94.0144 80.029 94.0876C79.9943 94.1242 79.9943 94.1974 79.9595 94.234C79.9595 94.234 79.9943 94.234 79.9943 94.1974C80.029 94.1608 80.0984 94.1608 80.1332 94.1242C80.2373 94.0876 80.3415 94.051 80.4457 94.0144C81.1054 93.7581 81.5568 93.575 81.7998 93.5018C82.5637 93.2455 83.2582 93.1357 83.8484 93.1357C84.1262 93.1357 84.3693 93.1357 84.5776 93.1723C84.8207 93.2089 85.029 93.2821 85.2373 93.3553C84.5429 92.9526 83.7443 92.5865 82.9109 92.3302ZM76.4873 93.2455C76.4873 93.2821 76.4873 93.3187 76.5221 93.3553C76.5915 93.6849 76.7998 93.9778 77.0776 94.234C77.2859 94.3805 77.529 94.4903 77.8068 94.5636L76.4873 93.2455ZM82.9109 92.3302C82.4595 92.1838 82.0082 92.0739 81.522 92.0007C81.4526 92.0007 81.3832 91.9641 81.3137 91.9641C81.1054 92.257 80.9318 92.5865 80.7234 92.8794C80.7234 92.8794 80.7234 92.8794 80.7234 92.916C80.654 92.9892 80.6193 93.0991 80.5498 93.2089C80.4804 93.3187 80.4457 93.392 80.3762 93.5018C80.3415 93.6116 80.272 93.6849 80.2026 93.7947C80.1332 93.9045 80.0984 94.0144 80.029 94.0876C79.9943 94.1242 79.9943 94.1974 79.9595 94.234C79.9595 94.234 79.9943 94.234 79.9943 94.1974C80.029 94.1608 80.0984 94.1608 80.1332 94.1242C80.2373 94.0876 80.3415 94.051 80.4457 94.0144C81.1054 93.7581 81.5568 93.575 81.7998 93.5018C82.5637 93.2455 83.2582 93.1357 83.8484 93.1357C84.1262 93.1357 84.3693 93.1357 84.5776 93.1723C84.8207 93.2089 85.029 93.2821 85.2373 93.3553C84.5429 92.9526 83.7443 92.5865 82.9109 92.3302ZM76.4873 93.2455C76.4873 93.2821 76.4873 93.3187 76.5221 93.3553C76.5915 93.6849 76.7998 93.9778 77.0776 94.234C77.2859 94.3805 77.529 94.4903 77.8068 94.5636L76.4873 93.2455ZM82.9109 92.3302C82.4595 92.1838 82.0082 92.0739 81.522 92.0007C81.4526 92.0007 81.3832 91.9641 81.3137 91.9641C81.1054 92.257 80.9318 92.5865 80.7234 92.8794C80.7234 92.8794 80.7234 92.8794 80.7234 92.916C80.654 92.9892 80.6193 93.0991 80.5498 93.2089C80.4804 93.3187 80.4457 93.392 80.3762 93.5018C80.3415 93.6116 80.272 93.6849 80.2026 93.7947C80.1332 93.9045 80.0984 94.0144 80.029 94.0876C79.9943 94.1242 79.9943 94.1974 79.9595 94.234C79.9595 94.234 79.9943 94.234 79.9943 94.1974C80.029 94.1608 80.0984 94.1608 80.1332 94.1242C80.2373 94.0876 80.3415 94.051 80.4457 94.0144C81.1054 93.7581 81.5568 93.575 81.7998 93.5018C82.5637 93.2455 83.2582 93.1357 83.8484 93.1357C84.1262 93.1357 84.3693 93.1357 84.5776 93.1723C84.8207 93.2089 85.029 93.2821 85.2373 93.3553C84.5429 92.9526 83.7443 92.5865 82.9109 92.3302Z" fill="#608C74"/>
<path d="M115.444 48.8707L139.02 72.3392C139.749 73.0348 139.749 74.243 139.02 74.9752L100.826 114.809C100.097 115.542 98.9508 115.578 98.2216 114.883L74.6453 91.4141C73.9508 90.7185 73.9161 89.5103 74.6453 88.778L112.84 48.944C113.569 48.2117 114.749 48.1751 115.444 48.8707Z" fill="#54C3BF"/>
<g opacity="0.47">
<g opacity="0.47">
<path opacity="0.47" d="M116.241 88.3384C115.963 88.0089 115.686 87.716 115.408 87.4597C114.783 86.8007 114.088 86.1783 113.359 85.6291C112.595 85.0067 111.797 84.4575 110.963 83.945C110.79 83.8351 110.616 83.7619 110.477 83.6521C110.408 83.6155 110.338 83.5788 110.269 83.5422C109.991 83.3958 109.748 83.2493 109.47 83.1029C108.672 82.7001 107.873 82.3706 107.04 82.0777H107.005C106.102 81.7482 105.165 81.4919 104.227 81.3089C102.838 81.016 101.415 80.8329 99.9911 80.8329C98.1856 80.7963 96.3453 80.9794 94.505 81.4187C94.2967 81.4553 94.0883 81.5286 93.9147 81.5652C92.9772 81.8215 92.0397 82.1144 91.1022 82.4805C91.0675 82.4805 91.0328 82.5171 91.0328 82.5171C90.4772 82.7368 89.8869 82.993 89.3314 83.2859H89.2967C89.0883 83.3958 88.9147 83.469 88.7411 83.5788C88.1855 83.8717 87.6647 84.2013 87.1092 84.5308C87.005 84.604 86.9008 84.6772 86.7619 84.7504C86.6578 84.8237 86.5536 84.8969 86.4494 84.9701C86.4147 85.0067 86.38 85.0433 86.3105 85.0433C86.1717 85.1532 86.0328 85.2264 85.9286 85.3362C85.5119 85.6291 85.0953 85.9586 84.7133 86.2881C84.123 86.8007 83.5328 87.3133 82.9772 87.8991C82.2133 88.6679 81.5189 89.4734 80.8592 90.3521C80.7203 90.5718 80.5467 90.7548 80.4078 90.9745C80.1994 91.2674 79.9911 91.5969 79.7828 91.9264C79.5744 92.256 79.3661 92.5855 79.1925 92.9516C79.1578 93.0248 79.0883 93.1346 79.0536 93.2079C78.7758 93.6838 78.5328 94.1964 78.3244 94.6724C78.2897 94.7822 78.2203 94.892 78.1855 95.0019L78.3592 95.1849L79.1578 95.9904C79.2967 95.6609 79.4355 95.3314 79.6092 95.0385C79.7133 94.7822 79.8522 94.5625 79.9564 94.3062C79.9911 94.2696 79.9911 94.1964 80.0258 94.1598C80.0605 94.0499 80.13 93.9401 80.1994 93.8669C80.2342 93.757 80.3036 93.6838 80.373 93.574C80.4078 93.4642 80.4772 93.3909 80.5467 93.2811C80.6161 93.1713 80.6508 93.098 80.7203 92.9882C80.7203 92.9882 80.7203 92.9882 80.7203 92.9516C80.8939 92.6221 81.1022 92.3292 81.3105 92.0363C81.38 91.9264 81.4494 91.8166 81.5536 91.7068C81.6925 91.5237 81.7967 91.3406 81.9355 91.1942C81.9703 91.1576 82.005 91.121 82.0397 91.0477C82.1092 90.9379 82.2133 90.8281 82.2828 90.7182C82.3522 90.6084 82.4564 90.4986 82.5605 90.3887C82.7342 90.169 82.9078 89.986 83.0814 89.8029C83.255 89.5833 83.4633 89.4002 83.6369 89.1805C83.7411 89.0707 83.8453 88.9608 83.9494 88.851C84.123 88.6679 84.2967 88.4849 84.4703 88.3384C84.6786 88.1188 84.9217 87.9357 85.13 87.716C85.1647 87.6794 85.1994 87.6794 85.1994 87.6428C85.373 87.4964 85.5814 87.3133 85.755 87.1668C86.1022 86.8739 86.4494 86.6177 86.8314 86.3614C87.0397 86.1783 87.2828 86.0319 87.5258 85.8854C87.9078 85.6291 88.2897 85.3728 88.7064 85.1532C89.4008 84.7504 90.13 84.3843 90.8939 84.0548H90.9286C91.1369 83.945 91.3453 83.8717 91.5883 83.7985C91.7272 83.7619 91.8661 83.6887 92.005 83.6521C92.1092 83.6155 92.1786 83.5788 92.2828 83.5422C92.7342 83.3958 93.1855 83.2493 93.6369 83.1029C93.8453 83.0297 94.0536 82.993 94.2619 82.9198C94.3661 82.8832 94.4703 82.8832 94.5744 82.8466C94.7133 82.81 94.8175 82.7734 94.9564 82.7368C96.5189 82.3706 98.0814 82.2242 99.6786 82.2242C101.102 82.2242 102.526 82.3706 103.949 82.6635C104.192 82.7001 104.47 82.7734 104.713 82.8466C105.269 82.993 105.79 83.1395 106.311 83.3226C106.449 83.3592 106.588 83.4324 106.727 83.469C106.866 83.5056 106.97 83.5422 107.074 83.6155C107.838 83.9084 108.602 84.2379 109.297 84.6406C109.505 84.7504 109.679 84.8603 109.887 84.9701C110.026 85.0433 110.13 85.1166 110.269 85.1898C110.338 85.2264 110.408 85.263 110.477 85.2996C111.241 85.7756 112.005 86.2882 112.699 86.8739C113.359 87.4231 113.984 87.9723 114.574 88.5947C114.713 88.7412 114.852 88.8876 114.956 89.0341C116.797 91.0111 118.22 93.3543 119.192 95.9538L120.199 94.892C119.192 92.3292 117.873 90.2057 116.241 88.3384Z" fill="#209BBB"/>
</g>
<g opacity="0.47">
<path opacity="0.47" d="M95.0953 83.4679C95.0258 83.2116 94.9911 82.9919 94.9217 82.7356C94.9217 82.699 94.9217 82.6624 94.8869 82.6258C94.8175 82.4061 94.7481 82.1498 94.6786 81.9302L94.505 81.3444L93.9147 81.4908C92.9772 81.7471 92.0397 82.04 91.1022 82.4061C91.0675 82.4061 91.0328 82.4427 91.0328 82.4427C90.4772 82.6624 89.8869 82.9187 89.3314 83.2116H89.2967C89.0883 83.3214 88.9147 83.3946 88.7411 83.5045C88.1856 83.7974 87.6647 84.1269 87.1092 84.4564C87.005 84.5296 86.9008 84.6029 86.7619 84.6761C86.6578 84.7493 86.5536 84.8225 86.4494 84.8957C86.4147 84.9324 86.38 84.969 86.3106 84.969C86.1717 85.0788 86.0328 85.152 85.9286 85.2619C85.5119 85.5548 85.0953 85.8843 84.7133 86.2138C84.1231 86.7264 83.5328 87.2389 82.9772 87.8247C82.2133 88.5936 81.5189 89.3991 80.8592 90.2777C80.7203 90.4974 80.5467 90.6805 80.4078 90.9002C80.1994 91.1931 79.9911 91.5226 79.7828 91.8521C79.5744 92.1816 79.3661 92.5111 79.1925 92.8772C79.1578 92.9504 79.0883 93.0603 79.0536 93.1335C78.7758 93.6095 78.5328 94.122 78.3244 94.598C78.2897 94.7078 78.2203 94.8177 78.1855 94.9275L78.3592 95.1106L79.1578 95.916C79.2967 95.5865 79.4355 95.257 79.6092 94.9641C79.7133 94.7078 79.8522 94.4882 79.9564 94.2319C79.9911 94.1953 79.9911 94.122 80.0258 94.0854C80.0605 93.9756 80.13 93.8657 80.1994 93.7925C80.2342 93.6827 80.3036 93.6095 80.373 93.4996C80.4078 93.3898 80.4772 93.3166 80.5467 93.2067C80.6161 93.0969 80.6508 93.0237 80.7203 92.9138C80.8939 92.5843 81.1022 92.2914 81.3105 91.9985C81.38 91.8887 81.4494 91.7788 81.5536 91.669C81.6925 91.4859 81.7967 91.3029 81.9355 91.1564C81.9703 91.1198 82.005 91.0832 82.0397 91.01C82.1092 90.9002 82.2133 90.7903 82.2828 90.6805C82.3869 90.5706 82.4564 90.4608 82.5605 90.351C82.7342 90.1313 82.9078 89.9482 83.0814 89.7652C83.255 89.5455 83.4633 89.3258 83.6369 89.1428C83.7411 89.0329 83.8453 88.9231 83.9494 88.8133C84.123 88.6302 84.2967 88.4471 84.4703 88.3007C84.6786 88.081 84.9217 87.898 85.13 87.6783C85.3383 87.4952 85.5467 87.3122 85.7897 87.1291C86.1369 86.8362 86.4842 86.5799 86.8314 86.3236C87.0744 86.1406 87.2828 85.9941 87.5258 85.8477C87.9078 85.5914 88.255 85.3717 88.6369 85.152C88.6369 85.152 88.6369 85.152 88.6717 85.152C88.7064 85.1154 88.7411 85.1154 88.7758 85.1154L88.8106 85.0788C88.88 85.0422 88.9147 85.0056 88.9842 84.969C89.2272 84.8225 89.4703 84.7127 89.7133 84.5662C89.7133 84.5662 89.7133 84.5662 89.7481 84.5662C90.13 84.3832 90.5119 84.1635 90.8939 84.0171H90.9286C91.1369 83.9072 91.3453 83.834 91.5883 83.7608C91.7272 83.7242 91.8661 83.6509 92.005 83.6143C92.1092 83.5777 92.1786 83.5411 92.2828 83.5045C92.7342 83.358 93.1856 83.2116 93.6369 83.0651C93.6717 83.2482 93.7411 83.4313 93.7758 83.6143C94.1578 85.2253 94.3661 86.8728 94.4008 88.5204C94.4008 88.9597 94.4008 89.4357 94.3661 89.875C94.2272 93.1335 93.3592 96.3554 91.8314 99.321C91.7272 99.5406 91.6231 99.7237 91.5189 99.9068C91.4842 99.98 91.4494 100.053 91.38 100.126C91.3106 100.236 91.2411 100.383 91.1717 100.493C91.0328 100.712 90.8939 100.932 90.755 101.115C89.9217 102.396 88.9494 103.605 87.8731 104.666L88.0119 104.813L88.8106 105.618C89.6092 104.813 90.3383 103.934 90.9981 103.019C91.4494 102.396 91.8661 101.774 92.2828 101.115C92.3869 100.932 92.5258 100.712 92.63 100.529C92.7342 100.346 92.8383 100.126 92.9425 99.9434C94.5397 96.8679 95.4772 93.4996 95.6508 90.1313C95.6856 89.6919 95.6856 89.216 95.6856 88.7766C95.6856 86.9094 95.5119 85.1886 95.0953 83.4679Z" fill="#209BBB"/>
</g>
<g opacity="0.47">
<path opacity="0.47" d="M113.428 98.5161C113.046 98.7358 112.629 98.9921 112.247 99.2484C109.4 101.189 106.935 103.752 105.129 106.754C105.025 106.937 104.886 107.157 104.782 107.34C104.678 107.523 104.574 107.742 104.469 107.925C103.601 109.573 102.942 111.257 102.49 113.015L104.574 110.854C104.886 110.086 105.233 109.317 105.615 108.584C105.719 108.365 105.824 108.182 105.928 107.999C106.032 107.816 106.136 107.596 106.275 107.413C107.768 104.923 109.712 102.763 111.969 101.079C112.351 100.786 112.768 100.493 113.15 100.237C113.532 99.9806 113.914 99.7609 114.296 99.5413C114.365 99.5046 114.435 99.468 114.469 99.4314C115.129 99.0653 115.789 98.7358 116.483 98.4429L118.567 96.2462C116.831 96.7587 115.094 97.5642 113.428 98.5161Z" fill="#209BBB"/>
</g>
<g opacity="0.47">
<path opacity="0.47" d="M110.721 84.5307L110.374 85.1531L106.068 92.8417L105.408 94.0499L99.9223 103.789L99.2626 104.96L95.3043 111.99L94.332 111.038L98.1168 104.338L98.7765 103.13L104.263 93.3909L104.922 92.1827L109.228 84.4941L109.575 83.8717L110.721 84.5307Z" fill="#209BBB"/>
</g>
<g opacity="0.47">
<path opacity="0.47" d="M106.311 107.412L107.353 107.998L106.38 109.023L105.651 108.621L104.505 107.962L99.2624 104.959L98.1165 104.337L92.2832 101.042L91.1026 100.383L80.0957 94.1223H80.061L79.4707 93.7561L80.1304 92.5845L80.7207 92.914H80.7554L91.7971 99.1747L92.9429 99.8338L98.7763 103.129L99.9221 103.788L105.165 106.79L106.311 107.412Z" fill="#209BBB"/>
</g>
<g opacity="0.47">
<path opacity="0.47" d="M114.367 99.5055L114.332 99.4689C114.054 99.1394 113.742 98.8465 113.429 98.517C111.728 96.7962 109.749 95.1853 107.526 93.7574C107.04 93.4279 106.554 93.135 106.068 92.8421C105.895 92.7323 105.686 92.6224 105.513 92.5126C105.339 92.4027 105.2 92.3295 105.026 92.2563L104.922 92.2197C104.714 92.1098 104.471 92 104.263 91.8536C103.395 91.4142 102.492 90.9749 101.624 90.6087C101.45 90.5355 101.276 90.4623 101.103 90.3891C99.957 89.9131 98.7765 89.5104 97.6306 89.1809C96.9709 88.9978 96.3459 88.8147 95.6862 88.6683C95.2348 88.5585 94.8181 88.4852 94.3668 88.412C92.7695 88.1191 91.1723 87.9727 89.714 87.9727C88.0126 87.9727 86.4154 88.1923 84.9918 88.5951C84.6793 88.6683 84.3668 88.7781 84.089 88.888C83.9501 88.9246 83.7765 88.9978 83.6376 89.071C83.6376 89.071 83.6376 89.071 83.6029 89.071C82.7001 89.4738 81.8668 89.9497 81.1376 90.5355C81.0681 90.5721 80.9987 90.6453 80.964 90.682C80.8251 90.7918 80.7209 90.9016 80.582 91.0481C80.339 91.3044 80.0959 91.5607 79.8876 91.8536C79.6445 92.1831 79.4015 92.5126 79.2279 92.8787C79.1931 92.9519 79.1237 93.0618 79.089 93.135C78.8459 93.6109 78.6723 94.0869 78.5334 94.5995C78.4987 94.7825 78.4293 94.9656 78.3945 95.1487L79.1931 95.9541L79.5404 96.2836C79.6098 95.5514 79.7834 94.8558 80.0265 94.2333C80.0265 94.1967 80.0612 94.1601 80.0612 94.1235C80.0959 94.0137 80.1654 93.9038 80.2001 93.794C80.2348 93.6842 80.3043 93.6109 80.3737 93.5011C80.4084 93.3913 80.4779 93.318 80.5473 93.2082C80.6168 93.0984 80.6862 93.0251 80.7556 92.9153C80.9987 92.5858 81.2418 92.2929 81.5543 92C81.6584 91.8902 81.7626 91.8169 81.8668 91.7071C81.9015 91.6705 81.9015 91.6705 81.9362 91.6705C82.3181 91.341 82.7348 91.0481 83.1862 90.7918C85.1306 89.6568 87.7001 89.1809 90.6168 89.2907C91.832 89.3273 93.082 89.4738 94.3668 89.73C94.7834 89.8033 95.2348 89.9131 95.6862 90.0229C96.207 90.1694 96.7626 90.2792 97.2834 90.4623C98.2904 90.7552 99.2973 91.1213 100.304 91.524C100.617 91.6705 100.929 91.7803 101.276 91.9268C102.145 92.2929 103.047 92.7323 103.915 93.2082C104.02 93.2814 104.124 93.318 104.263 93.3913L104.297 93.4279C104.471 93.5377 104.679 93.6476 104.853 93.7574C105.026 93.8672 105.235 93.9771 105.408 94.0869C105.86 94.3432 106.311 94.6361 106.763 94.929C108.846 96.2836 110.721 97.7481 112.318 99.3225C112.596 99.5787 112.874 99.835 113.117 100.128C113.151 100.165 113.221 100.238 113.256 100.274C113.533 100.567 113.776 100.86 114.02 101.153L114.922 100.201C114.749 99.9449 114.575 99.7252 114.367 99.5055Z" fill="#209BBB"/>
</g>
</g>
<path d="M100.757 107.635C100.757 107.598 100.722 107.562 100.687 107.525L100.583 107.635C100.583 107.635 100.583 107.635 100.548 107.598C100.514 107.562 100.514 107.562 100.479 107.562C100.444 107.525 100.41 107.525 100.375 107.525C100.34 107.525 100.305 107.525 100.271 107.562L99.8192 108.038L99.7151 107.965L98.3609 106.61L97.8401 106.097C97.8053 106.061 97.7706 106.061 97.7012 106.061C97.6664 106.061 97.597 106.097 97.5623 106.134L97.4581 106.244C97.3887 106.317 97.3192 106.39 97.2498 106.463C97.1803 106.537 97.1456 106.61 97.1109 106.647V106.683L97.0762 106.756C97.0762 106.793 97.0762 106.793 97.0762 106.83C97.0762 106.866 97.1109 106.939 97.1803 107.013C97.2151 107.049 97.2498 107.086 97.2845 107.086C97.3192 107.086 97.3539 107.086 97.4234 107.086C97.4581 107.086 97.4928 107.049 97.5623 107.013C97.597 106.976 97.6317 106.939 97.7012 106.903L98.0137 107.196L98.0831 107.269L99.4026 108.587L98.9512 109.063C98.9165 109.1 98.9164 109.136 98.8817 109.173C98.847 109.209 98.847 109.246 98.847 109.283C98.847 109.319 98.847 109.356 98.847 109.392C98.847 109.429 98.8817 109.466 98.9164 109.502C98.9512 109.539 98.9859 109.576 99.0206 109.576C99.0553 109.576 99.0901 109.576 99.1248 109.576C99.1595 109.576 99.1942 109.539 99.2289 109.539C99.2637 109.502 99.2984 109.502 99.3331 109.466L99.3678 109.429L100.722 108.001C100.757 107.965 100.757 107.965 100.791 107.928C100.826 107.891 100.826 107.855 100.826 107.818C100.791 107.708 100.791 107.672 100.757 107.635Z" fill="#666666"/>
<path d="M103.396 104.887C103.396 104.85 103.361 104.814 103.326 104.777C103.291 104.741 103.257 104.741 103.187 104.704C103.153 104.704 103.118 104.704 103.048 104.704C103.014 104.704 102.979 104.741 102.944 104.741C102.91 104.777 102.875 104.777 102.84 104.814L102.458 105.216L101.625 106.095L101.382 105.875C101.278 105.766 101.208 105.692 101.173 105.619C101.139 105.546 101.139 105.473 101.173 105.4C101.208 105.326 101.243 105.216 101.347 105.143C101.416 105.033 101.521 104.924 101.66 104.777C101.798 104.631 101.903 104.484 102.007 104.338C102.076 104.191 102.111 104.081 102.146 103.935C102.146 103.825 102.111 103.679 102.041 103.569C101.972 103.422 101.868 103.313 101.729 103.166C101.59 103.056 101.451 102.947 101.347 102.873C101.312 102.837 101.243 102.837 101.173 102.837C101.139 102.837 101.069 102.837 101.035 102.837C101 102.837 100.965 102.837 100.93 102.837C100.791 102.873 100.653 102.91 100.479 103.02C100.41 103.093 100.305 103.166 100.201 103.239C100.132 103.313 100.062 103.386 99.9581 103.459C99.8887 103.532 99.8192 103.606 99.7498 103.679C99.7151 103.715 99.6456 103.789 99.6109 103.825C99.5067 103.935 99.4373 104.081 99.3678 104.155C99.2984 104.265 99.2637 104.374 99.2637 104.448C99.2637 104.557 99.2637 104.631 99.3331 104.667C99.4026 104.741 99.472 104.741 99.5415 104.777C99.6109 104.777 99.6803 104.741 99.7498 104.704L99.7845 104.667C99.8192 104.594 99.8887 104.557 99.8887 104.521C99.8887 104.484 99.9234 104.411 99.9581 104.338C99.9928 104.265 100.028 104.191 100.097 104.118C100.132 104.045 100.201 104.008 100.236 103.935C100.271 103.898 100.271 103.898 100.305 103.862C100.41 103.752 100.514 103.642 100.583 103.606C100.653 103.532 100.757 103.496 100.791 103.496C100.826 103.496 100.861 103.496 100.896 103.496C100.93 103.496 100.965 103.496 101 103.532C101.069 103.569 101.139 103.606 101.173 103.679C101.243 103.752 101.278 103.789 101.312 103.862C101.347 103.898 101.347 103.972 101.347 104.008C101.347 104.045 101.312 104.118 101.278 104.155C101.243 104.191 101.208 104.265 101.139 104.338L101.069 104.411L100.791 104.704C100.653 104.85 100.583 104.96 100.514 105.107C100.444 105.216 100.41 105.363 100.375 105.473C100.375 105.509 100.375 105.546 100.375 105.583C100.375 105.692 100.41 105.766 100.444 105.875C100.514 106.022 100.583 106.132 100.722 106.278L101.243 106.791C101.312 106.864 101.382 106.901 101.451 106.901C101.521 106.901 101.625 106.827 101.729 106.718L101.937 106.498L102.91 105.473L103.187 105.18C103.222 105.143 103.257 105.107 103.257 105.07C103.291 105.033 103.291 104.997 103.291 104.96C103.396 104.96 103.396 104.924 103.396 104.887Z" fill="#666666"/>
<path d="M105.792 101.85C105.722 101.704 105.618 101.594 105.479 101.447C105.375 101.374 105.306 101.301 105.236 101.228C105.167 101.191 105.097 101.118 105.063 101.118C104.993 101.081 104.959 101.081 104.924 101.081C104.889 101.081 104.854 101.081 104.82 101.081C104.82 101.045 104.82 100.971 104.785 100.935C104.785 100.898 104.75 100.825 104.716 100.788C104.681 100.752 104.646 100.679 104.577 100.605C104.542 100.532 104.472 100.459 104.403 100.386C104.264 100.239 104.125 100.129 103.986 100.093C103.847 100.056 103.743 100.02 103.604 100.056C103.466 100.093 103.327 100.166 103.188 100.276C103.049 100.386 102.875 100.532 102.702 100.715C102.563 100.862 102.424 101.008 102.354 101.154C102.25 101.301 102.215 101.374 102.146 101.484C102.111 101.594 102.111 101.667 102.111 101.74C102.111 101.813 102.146 101.887 102.215 101.96C102.25 101.997 102.32 102.033 102.424 102.033C102.493 102.033 102.563 101.997 102.632 101.923V101.887C102.667 101.85 102.667 101.814 102.702 101.814C102.736 101.777 102.736 101.777 102.736 101.74C102.736 101.704 102.771 101.704 102.771 101.667C102.771 101.63 102.771 101.594 102.806 101.557C102.841 101.484 102.875 101.411 102.945 101.338C103.014 101.264 103.084 101.191 103.153 101.081L103.188 101.045C103.292 100.935 103.396 100.862 103.466 100.788C103.535 100.752 103.604 100.715 103.674 100.715C103.743 100.715 103.813 100.715 103.847 100.752C103.882 100.788 103.952 100.825 104.021 100.898C104.091 100.971 104.125 101.008 104.16 101.045C104.195 101.081 104.195 101.154 104.195 101.191C104.195 101.228 104.195 101.264 104.16 101.301C104.125 101.338 104.125 101.374 104.056 101.411L103.57 101.923C103.5 101.997 103.466 102.07 103.466 102.143C103.431 102.216 103.466 102.289 103.535 102.363C103.57 102.399 103.604 102.436 103.639 102.436C103.674 102.436 103.709 102.436 103.743 102.436C103.778 102.436 103.813 102.399 103.847 102.399C103.882 102.363 103.917 102.363 103.952 102.326L104.472 101.777C104.542 101.704 104.646 101.667 104.716 101.667C104.785 101.667 104.889 101.74 104.993 101.85C105.063 101.923 105.097 101.96 105.132 102.033C105.167 102.106 105.167 102.143 105.167 102.216C105.167 102.289 105.132 102.363 105.097 102.436C105.063 102.509 104.959 102.619 104.889 102.729L104.854 102.765C104.785 102.839 104.681 102.912 104.646 102.985C104.611 103.022 104.542 103.058 104.507 103.095C104.472 103.132 104.438 103.132 104.403 103.168C104.368 103.168 104.334 103.205 104.299 103.205C104.264 103.205 104.264 103.205 104.229 103.205C104.229 103.205 104.195 103.205 104.16 103.205C104.125 103.205 104.125 103.241 104.091 103.241C104.056 103.278 104.056 103.278 103.986 103.315C103.952 103.351 103.917 103.424 103.882 103.534C103.882 103.607 103.917 103.681 103.952 103.754C104.021 103.791 104.091 103.827 104.16 103.864C104.229 103.864 104.299 103.864 104.368 103.827C104.438 103.791 104.507 103.754 104.577 103.717C104.646 103.681 104.716 103.607 104.785 103.571C104.854 103.498 104.924 103.461 104.993 103.388C105.063 103.315 105.097 103.278 105.167 103.205L105.202 103.168C105.41 102.948 105.549 102.765 105.653 102.619C105.757 102.473 105.827 102.289 105.861 102.143C105.861 102.143 105.861 101.997 105.792 101.85Z" fill="#666666"/>
<path d="M108.568 99.5072C108.568 99.4706 108.533 99.434 108.499 99.434L107.665 98.5919L107.735 98.5187C107.804 98.4455 107.839 98.3722 107.839 98.299C107.839 98.2258 107.839 98.1526 107.735 98.0793C107.665 98.0061 107.596 97.9695 107.526 98.0061C107.457 98.0427 107.388 98.0793 107.318 98.1526L107.249 98.2258L106.346 97.3471C106.276 97.3105 106.207 97.2739 106.138 97.2739C106.068 97.2739 105.964 97.3105 105.895 97.4203C105.825 97.4935 105.756 97.5668 105.756 97.6766C105.756 97.7498 105.79 97.823 105.86 97.8963L106.763 98.775L106.138 99.434L105.27 98.5553C105.2 98.4821 105.131 98.4455 105.026 98.4455C104.957 98.4455 104.853 98.4821 104.783 98.5919C104.749 98.6285 104.714 98.6651 104.679 98.7384C104.679 98.775 104.645 98.8116 104.645 98.8848C104.645 98.9214 104.645 98.958 104.679 98.9946C104.714 99.0313 104.714 99.0679 104.749 99.0679L105.895 100.203C105.929 100.239 105.999 100.276 106.033 100.276C106.068 100.276 106.103 100.239 106.172 100.166L107.145 99.1411L107.978 99.9832C108.013 100.02 108.013 100.02 108.047 100.02C108.082 100.02 108.117 100.056 108.151 100.02C108.186 100.02 108.221 100.02 108.29 99.9832C108.325 99.9466 108.395 99.9466 108.429 99.8733C108.464 99.8367 108.499 99.7635 108.533 99.7269C108.568 99.6903 108.568 99.6537 108.568 99.5804C108.568 99.5804 108.568 99.5438 108.568 99.5072Z" fill="#666666"/>
<path d="M113.047 94.3061C112.978 94.1596 112.873 94.0498 112.735 93.9033C112.596 93.7569 112.457 93.647 112.353 93.5738C112.248 93.5006 112.11 93.464 112.005 93.464C111.901 93.464 111.797 93.5006 111.658 93.5738C111.554 93.647 111.415 93.7569 111.276 93.9033L110.617 94.599L109.992 93.9766L110.964 92.9514C110.998 92.9148 111.033 92.8782 111.068 92.8416C111.103 92.805 111.137 92.7683 111.137 92.7317C111.137 92.6951 111.137 92.6585 111.137 92.6219C111.137 92.5853 111.103 92.5487 111.033 92.4755C110.998 92.4388 110.929 92.4022 110.894 92.4022C110.86 92.4022 110.79 92.4022 110.755 92.4022C110.721 92.4022 110.686 92.4388 110.617 92.4755C110.582 92.5121 110.547 92.5487 110.512 92.5487C110.512 92.5487 110.478 92.5853 110.408 92.6585L110.2 92.8782C110.13 92.9514 110.026 93.0612 109.957 93.1345C109.853 93.2443 109.783 93.3175 109.679 93.4274C109.61 93.5006 109.505 93.6104 109.471 93.647C109.401 93.7203 109.367 93.7569 109.332 93.7935C109.228 93.9033 109.158 94.0132 109.158 94.0864C109.158 94.1596 109.193 94.2328 109.262 94.3061L110.2 95.258C110.269 95.3312 110.304 95.3678 110.373 95.4044C110.408 95.441 110.478 95.441 110.512 95.441C110.547 95.441 110.617 95.4044 110.651 95.3678C110.686 95.3312 110.755 95.258 110.825 95.1848L111.658 94.3061C111.728 94.2328 111.832 94.1962 111.901 94.1962C111.971 94.2328 112.075 94.2695 112.179 94.3793C112.248 94.4525 112.283 94.4891 112.318 94.5624C112.353 94.6356 112.353 94.6722 112.353 94.7454C112.353 94.8186 112.318 94.8919 112.283 94.9651C112.248 95.0383 112.179 95.1481 112.075 95.258C111.971 95.3678 111.901 95.441 111.832 95.5143C111.762 95.5875 111.693 95.6241 111.658 95.6607C111.623 95.6973 111.589 95.6973 111.554 95.6973C111.519 95.6973 111.485 95.6973 111.45 95.7339C111.415 95.7339 111.38 95.7706 111.346 95.7706C111.311 95.8072 111.276 95.8072 111.207 95.8804C111.172 95.9536 111.137 96.0268 111.103 96.1001C111.103 96.1733 111.137 96.2465 111.172 96.3197C111.276 96.393 111.346 96.4296 111.45 96.4296C111.554 96.4296 111.658 96.393 111.762 96.3197C111.867 96.2465 111.971 96.1733 112.075 96.1001C112.179 96.0268 112.248 95.917 112.318 95.8438L112.422 95.7339C112.63 95.5143 112.769 95.3312 112.873 95.1848C112.978 95.0383 113.047 94.8553 113.082 94.7454C113.117 94.5624 113.117 94.4159 113.047 94.3061Z" fill="#666666"/>
<path d="M115.72 91.3787C115.651 91.2322 115.547 91.1224 115.442 91.0125C115.304 90.8661 115.199 90.7929 115.061 90.7196C114.922 90.6464 114.783 90.6098 114.679 90.6098C114.54 90.6098 114.401 90.6464 114.262 90.7196C114.123 90.7929 113.949 90.9393 113.811 91.0858C113.741 91.159 113.672 91.2322 113.602 91.342C113.498 91.4519 113.429 91.5617 113.324 91.7082L112.526 90.9027C112.456 90.8295 112.387 90.8295 112.317 90.8295C112.248 90.8295 112.144 90.8661 112.074 90.9759C112.04 91.0125 112.005 91.0858 111.97 91.1224C111.936 91.159 111.936 91.2322 111.936 91.2688C111.936 91.3054 111.936 91.3421 111.97 91.3787C112.005 91.4153 112.005 91.4519 112.04 91.4519L113.672 93.0994C113.811 93.2459 113.949 93.3191 114.088 93.3557C114.227 93.3923 114.366 93.3923 114.505 93.3557C114.644 93.3191 114.783 93.2825 114.922 93.1727C115.061 93.0628 115.199 92.953 115.338 92.8065C115.512 92.6235 115.651 92.4404 115.755 92.294C115.859 92.1475 115.894 91.9645 115.894 91.8546C115.824 91.6716 115.79 91.5251 115.72 91.3787ZM115.061 92.1475C115.026 92.2207 114.956 92.294 114.852 92.3672C114.783 92.4404 114.679 92.5136 114.609 92.5869C114.54 92.6235 114.47 92.6601 114.401 92.6601C114.331 92.6601 114.262 92.6601 114.192 92.6235C114.123 92.5869 114.054 92.5503 113.984 92.477L113.672 92.1475C113.706 92.1109 113.741 92.0743 113.741 92.0377C113.776 92.0011 113.776 91.9645 113.811 91.9278C113.845 91.8912 113.88 91.8546 113.915 91.818C113.949 91.7814 114.019 91.7082 114.088 91.6349C114.192 91.5251 114.262 91.4519 114.331 91.4153C114.401 91.3787 114.47 91.342 114.54 91.3054C114.609 91.3054 114.679 91.3054 114.713 91.342C114.783 91.3787 114.852 91.4153 114.922 91.4885C114.991 91.5617 115.061 91.6349 115.095 91.7082C115.13 91.7814 115.13 91.8546 115.13 91.9278C115.13 92.0011 115.095 92.0743 115.061 92.1475Z" fill="#666666"/>
<path d="M118.222 89.2534L116.243 87.2764C116.173 87.2032 116.104 87.1665 116.069 87.1299C116 87.0933 115.965 87.0933 115.895 87.0933C115.826 87.0933 115.791 87.1299 115.722 87.1665C115.652 87.2032 115.583 87.2764 115.479 87.3862L115.444 87.4228L114.507 88.4114L114.194 88.7043C114.125 88.7775 114.09 88.8507 114.09 88.9239C114.09 88.9972 114.09 89.0704 114.159 89.1436C114.229 89.2168 114.298 89.2534 114.402 89.2168C114.472 89.1802 114.541 89.1436 114.611 89.0704L114.888 88.7775L115.826 87.8256L116.243 88.2283L116.277 88.2649L117.736 89.7294C117.805 89.8026 117.875 89.8392 117.944 89.8392C118.013 89.8392 118.118 89.8026 118.187 89.6928C118.256 89.6196 118.291 89.5463 118.291 89.4365C118.326 89.3999 118.291 89.3267 118.222 89.2534Z" fill="#666666"/>
<path d="M120.792 86.216C120.722 86.0695 120.618 85.9597 120.479 85.8132C120.34 85.6668 120.201 85.5569 120.097 85.4837C119.993 85.4105 119.854 85.3739 119.75 85.3739C119.646 85.3739 119.507 85.4105 119.403 85.4837C119.299 85.5569 119.16 85.6668 119.021 85.8132L118.361 86.5089L117.736 85.8865L118.743 84.8613C118.778 84.8247 118.813 84.7881 118.847 84.7515C118.882 84.7149 118.917 84.6783 118.917 84.6416C118.917 84.605 118.917 84.5684 118.917 84.5318C118.917 84.4952 118.882 84.4586 118.812 84.3854C118.778 84.3487 118.708 84.3121 118.674 84.3121C118.639 84.3121 118.569 84.3121 118.535 84.3121C118.5 84.3121 118.465 84.3487 118.396 84.3854C118.361 84.422 118.326 84.4586 118.292 84.4586C118.292 84.4586 118.257 84.4952 118.187 84.5684C118.118 84.6416 118.049 84.7149 117.979 84.7881C117.91 84.8613 117.806 84.9712 117.736 85.0444C117.632 85.1542 117.563 85.2274 117.458 85.3373C117.389 85.4105 117.285 85.4837 117.25 85.5569C117.181 85.6302 117.146 85.6668 117.111 85.7034C117.007 85.8132 116.938 85.9231 116.938 85.9963C116.938 86.0695 116.972 86.1427 117.042 86.216L117.979 87.1679C118.049 87.2411 118.083 87.2777 118.153 87.3143C118.188 87.3509 118.257 87.3509 118.292 87.3509C118.326 87.3509 118.396 87.3143 118.431 87.2777C118.465 87.2411 118.535 87.1679 118.604 87.0947L119.438 86.216C119.507 86.1427 119.611 86.1061 119.681 86.1061C119.75 86.1427 119.854 86.1794 119.958 86.2892C120.028 86.3624 120.062 86.4356 120.097 86.4722C120.132 86.5455 120.132 86.5821 120.132 86.6553C120.132 86.7285 120.097 86.8018 120.028 86.875C119.993 86.9482 119.924 87.058 119.819 87.1679C119.715 87.2777 119.646 87.3509 119.576 87.4242C119.507 87.4974 119.437 87.534 119.403 87.5706C119.368 87.6072 119.333 87.6072 119.299 87.6072C119.264 87.6072 119.229 87.6072 119.194 87.6438C119.16 87.6438 119.125 87.6805 119.09 87.6805C119.056 87.6805 119.021 87.7171 118.951 87.7903C118.882 87.8635 118.847 87.9367 118.847 88.01C118.847 88.0832 118.882 88.1564 118.917 88.2296C119.021 88.3029 119.09 88.3395 119.194 88.3395C119.299 88.3395 119.403 88.3029 119.507 88.2296C119.611 88.193 119.715 88.0832 119.819 88.01C119.924 87.9367 119.993 87.8269 120.063 87.7537L120.167 87.6438C120.375 87.4242 120.514 87.2411 120.618 87.0947C120.722 86.9116 120.792 86.7651 120.826 86.6553C120.861 86.4722 120.861 86.3624 120.792 86.216Z" fill="#666666"/>
<path d="M125.306 81.4923C125.237 81.3825 125.167 81.2727 125.063 81.1628C124.959 81.053 124.89 80.9798 124.82 80.9432C124.751 80.9065 124.681 80.8699 124.647 80.8333C124.577 80.8333 124.508 80.8333 124.438 80.8333C124.369 80.8699 124.265 80.9065 124.126 80.9432C124.195 80.8333 124.23 80.7235 124.23 80.6503C124.265 80.577 124.265 80.5038 124.23 80.4306C124.23 80.3574 124.16 80.2841 124.126 80.2475C124.056 80.1743 123.987 80.1011 123.883 79.9912C123.744 79.8448 123.64 79.7716 123.501 79.7349C123.362 79.6983 123.258 79.6617 123.119 79.6983C122.98 79.7349 122.841 79.7716 122.702 79.8814C122.563 79.9912 122.39 80.1377 122.216 80.3207C122.042 80.5038 121.903 80.6503 121.799 80.8333C121.695 80.9798 121.66 81.1262 121.626 81.2361C121.591 81.3825 121.626 81.4923 121.66 81.6388C121.73 81.7486 121.799 81.8951 121.938 82.0415C122.042 82.1514 122.147 82.2246 122.216 82.2978C122.285 82.3344 122.355 82.4076 122.39 82.4076C122.459 82.4443 122.528 82.4076 122.598 82.4076C122.667 82.371 122.772 82.3344 122.91 82.2612C122.876 82.4076 122.841 82.5175 122.806 82.5907C122.806 82.6639 122.806 82.7005 122.806 82.7372C122.806 82.7738 122.806 82.7738 122.806 82.8104C122.841 82.8836 122.841 82.9202 122.91 82.9934C122.945 83.0667 123.049 83.1399 123.119 83.2131C123.223 83.323 123.327 83.3962 123.431 83.4694C123.501 83.506 123.57 83.5426 123.64 83.5426C123.674 83.5426 123.744 83.5426 123.813 83.5426H123.848C123.987 83.5426 124.091 83.4694 124.265 83.3962C124.438 83.2863 124.612 83.1399 124.82 82.9568C124.855 82.9202 124.924 82.847 124.959 82.8104C125.098 82.6639 125.202 82.5175 125.306 82.371C125.41 82.188 125.445 82.0415 125.48 81.9317C125.376 81.7486 125.376 81.6022 125.306 81.4923ZM122.737 81.6754C122.667 81.6754 122.633 81.6754 122.598 81.6388C122.563 81.6022 122.494 81.5656 122.424 81.4923C122.355 81.4191 122.32 81.3459 122.285 81.3093C122.251 81.2727 122.251 81.1994 122.285 81.1262C122.32 81.053 122.32 81.0164 122.39 80.9432C122.424 80.8699 122.494 80.7967 122.598 80.7235C122.667 80.6503 122.737 80.577 122.806 80.5404C122.876 80.5038 122.945 80.4306 122.98 80.4306C123.049 80.394 123.084 80.394 123.153 80.394C123.223 80.394 123.258 80.4306 123.327 80.5038C123.397 80.577 123.466 80.6503 123.501 80.6869C123.535 80.7235 123.57 80.7967 123.57 80.8333C123.57 80.8699 123.535 80.9432 123.501 81.053C123.466 81.1262 123.397 81.2361 123.292 81.3825C123.153 81.4923 123.049 81.5289 122.945 81.6022C122.876 81.6754 122.806 81.6754 122.737 81.6754ZM123.917 82.7738C123.848 82.7738 123.813 82.7738 123.744 82.7738C123.709 82.7738 123.709 82.7372 123.674 82.7372C123.64 82.7372 123.64 82.7005 123.605 82.6639C123.605 82.6639 123.57 82.6273 123.57 82.5907C123.535 82.5541 123.535 82.5175 123.535 82.4443C123.535 82.371 123.535 82.2978 123.57 82.188C123.605 82.0781 123.64 81.9317 123.709 81.7852C123.848 81.712 123.987 81.6388 124.091 81.6388C124.195 81.6022 124.265 81.6022 124.334 81.6022C124.403 81.6022 124.438 81.6022 124.473 81.6388C124.508 81.6388 124.508 81.6754 124.508 81.6754L124.542 81.712C124.577 81.7486 124.612 81.8218 124.647 81.8585C124.681 81.8951 124.681 81.9683 124.647 82.0049C124.647 82.0781 124.612 82.1147 124.542 82.188C124.508 82.2612 124.438 82.3344 124.334 82.4443C124.23 82.5541 124.16 82.6273 124.091 82.7005C124.056 82.7372 124.056 82.7372 124.022 82.7372C123.987 82.7738 123.952 82.7738 123.917 82.7738Z" fill="#666666"/>
<path d="M128.258 78.9675C128.258 78.9309 128.223 78.8942 128.188 78.8942L126.556 77.2467C126.417 77.1002 126.278 77.027 126.14 76.9904C126.001 76.9538 125.862 76.9538 125.723 76.9538C125.584 76.9904 125.445 77.0636 125.306 77.1369C125.167 77.2467 125.028 77.3565 124.89 77.503C124.716 77.686 124.577 77.8691 124.473 78.0155C124.369 78.162 124.334 78.3451 124.334 78.4549C124.334 78.6013 124.369 78.7478 124.403 78.8576C124.403 78.8942 124.438 78.8942 124.438 78.9309C124.508 79.0407 124.577 79.1505 124.681 79.2604C124.82 79.4068 124.924 79.48 125.063 79.5533C125.202 79.6265 125.306 79.6631 125.445 79.6631C125.584 79.6631 125.723 79.6265 125.862 79.5533C126.001 79.48 126.14 79.3702 126.313 79.1871L126.383 79.1139C126.452 79.0773 126.487 79.0041 126.521 78.9675C126.556 78.9309 126.591 78.8942 126.626 78.8576C126.695 78.7844 126.765 78.6746 126.834 78.6013L127.216 78.9675L127.633 79.4068C127.702 79.48 127.771 79.48 127.841 79.48C127.91 79.48 128.015 79.4434 128.084 79.3336C128.119 79.297 128.153 79.2237 128.188 79.1871C128.223 79.1505 128.223 79.1139 128.223 79.0407C128.258 79.0407 128.258 79.0041 128.258 78.9675ZM125.584 79.0041C125.549 79.0041 125.515 79.0041 125.445 79.0041C125.41 79.0041 125.41 79.0041 125.376 78.9675C125.306 78.9309 125.237 78.8942 125.167 78.821C125.098 78.7478 125.028 78.6746 124.994 78.6013C124.959 78.5281 124.959 78.4549 124.959 78.3817C124.959 78.3084 124.994 78.2352 125.063 78.162C125.098 78.0888 125.167 78.0155 125.271 77.9423C125.341 77.8691 125.445 77.7959 125.515 77.7227C125.584 77.686 125.653 77.6494 125.723 77.6494C125.792 77.6494 125.862 77.6494 125.931 77.686C126.001 77.7227 126.07 77.7593 126.14 77.8325L126.452 78.162C126.417 78.1986 126.383 78.2718 126.313 78.3084C126.278 78.3451 126.244 78.4183 126.174 78.4549C126.14 78.4915 126.105 78.5281 126.07 78.5647C126.035 78.6013 126.035 78.6013 126.001 78.638C125.896 78.7478 125.827 78.821 125.758 78.8576C125.723 78.9309 125.688 78.9675 125.584 79.0041C125.619 78.9675 125.619 79.0041 125.584 79.0041Z" fill="#666666"/>
<path d="M130.722 75.9287C130.688 75.7822 130.583 75.6724 130.445 75.526L129.264 74.3177C129.16 74.2079 129.021 74.1347 128.917 74.0981C128.778 74.0615 128.639 74.0615 128.5 74.0981C128.361 74.1347 128.222 74.2079 128.083 74.2811C127.945 74.391 127.806 74.5008 127.667 74.6473C127.354 74.9768 127.181 75.2697 127.111 75.5626C127.042 75.8555 127.146 76.1117 127.354 76.3314L128.57 77.5396C128.674 77.6495 128.813 77.7227 128.952 77.7593C129.09 77.7959 129.229 77.7959 129.368 77.7593C129.507 77.7227 129.646 77.6495 129.785 77.5762C129.924 77.4664 130.063 77.3566 130.236 77.2101C130.375 77.0637 130.514 76.9172 130.583 76.7708C130.688 76.6243 130.757 76.4779 130.792 76.3314C130.792 76.185 130.792 76.0385 130.722 75.9287ZM130.063 76.368C130.028 76.5145 129.924 76.6243 129.785 76.7708C129.646 76.9172 129.507 77.0271 129.403 77.0637C129.299 77.1003 129.195 77.0637 129.09 76.9538L127.875 75.7456C127.806 75.6724 127.771 75.5626 127.806 75.4527C127.84 75.3429 127.91 75.1964 128.083 75.0134C128.222 74.8669 128.396 74.7571 128.5 74.7205C128.639 74.6839 128.743 74.7205 128.813 74.8303L129.993 76.0019C130.063 76.1484 130.097 76.2582 130.063 76.368Z" fill="#666666"/>
<path d="M133.535 73.4747C133.535 73.4381 133.5 73.4015 133.466 73.3649L133.327 73.4747C133.327 73.4747 133.327 73.4747 133.292 73.4381C133.257 73.4381 133.257 73.4015 133.223 73.4015C133.188 73.4015 133.153 73.3649 133.118 73.3649C133.084 73.3649 133.049 73.3649 133.014 73.4015L132.563 73.8774L130.584 71.9004C130.549 71.8638 130.514 71.8638 130.445 71.8638C130.41 71.8638 130.341 71.9004 130.271 71.9736L130.167 72.0834C130.098 72.1567 130.028 72.2299 129.959 72.3031C129.889 72.3763 129.855 72.4496 129.82 72.4862C129.785 72.5594 129.785 72.596 129.785 72.6692C129.785 72.7425 129.82 72.7791 129.889 72.8523C129.924 72.8889 129.959 72.9255 129.993 72.9255C130.028 72.9255 130.063 72.9255 130.132 72.9255C130.167 72.9255 130.202 72.8889 130.271 72.8523C130.306 72.8157 130.341 72.7791 130.41 72.7425L132.077 74.4266L131.625 74.9026C131.591 74.9392 131.556 74.9758 131.556 75.0124C131.521 75.049 131.521 75.0856 131.521 75.1222C131.521 75.1588 131.521 75.1955 131.521 75.2321C131.521 75.2687 131.556 75.3053 131.591 75.3419C131.625 75.3785 131.66 75.4151 131.695 75.4151C131.73 75.4151 131.764 75.4151 131.799 75.4151C131.834 75.4151 131.868 75.3785 131.903 75.3785C131.938 75.3419 131.973 75.3419 132.007 75.3053L133.431 73.8408C133.466 73.8042 133.466 73.8042 133.5 73.7676C133.535 73.731 133.535 73.6944 133.535 73.6578C133.535 73.5479 133.535 73.5113 133.535 73.4747Z" fill="#666666"/>
<path d="M83.2207 90.0213C83.186 89.948 83.186 89.8748 83.1513 89.8016C83.1513 89.765 83.1165 89.7284 83.0818 89.6918C83.0818 89.6918 83.0818 89.6918 83.0471 89.6551C83.0124 89.6551 83.0124 89.6185 82.9776 89.6185C82.9429 89.6185 82.9082 89.6185 82.8388 89.6185C82.804 89.6185 82.7693 89.6185 82.6999 89.6551C82.6651 89.6918 82.6304 89.6918 82.5957 89.7284C82.5263 89.8016 82.4915 89.8748 82.4915 89.948C82.4915 90.0213 82.4915 90.0945 82.5263 90.1677C82.5263 90.2043 82.561 90.2409 82.561 90.2776C82.561 90.3142 82.561 90.3508 82.561 90.424C82.561 90.4606 82.561 90.5338 82.5263 90.5705C82.4915 90.6437 82.4915 90.6803 82.4221 90.7169C82.3526 90.7901 82.2832 90.8267 82.2138 90.8634C82.1443 90.9 82.0749 90.9 82.0054 90.9C81.9707 90.9 81.936 90.9 81.9013 90.9C81.7971 90.9 81.6582 90.8267 81.5193 90.7535C81.4151 90.6803 81.2763 90.6071 81.1374 90.4606C81.1026 90.424 81.0332 90.3874 80.9985 90.3142L80.9638 90.2776C80.929 90.2409 80.8943 90.2043 80.8943 90.2043C80.6513 89.948 80.5124 89.6918 80.4776 89.5087C80.4082 89.289 80.4776 89.0693 80.6165 88.9229C80.686 88.8497 80.7554 88.8131 80.7901 88.8131C80.8596 88.7764 80.929 88.7764 80.9638 88.7764C80.9638 88.8131 80.9985 88.8497 81.0332 88.8863L81.1721 89.0327C81.2068 89.0693 81.2763 89.106 81.3457 89.0693C81.4151 89.0693 81.4846 89.0327 81.5193 88.9595L81.8318 88.6666C81.936 88.5568 81.936 88.4103 81.8665 88.3371C81.8318 88.3005 81.8318 88.3005 81.8318 88.3005C81.8318 88.3005 81.8318 88.2639 81.7971 88.2639L81.7624 88.2273C81.7624 88.1906 81.7276 88.1906 81.6929 88.154C81.6582 88.1174 81.6235 88.1174 81.5888 88.1174C81.554 88.1174 81.5193 88.1174 81.4846 88.1174C81.3804 88.0808 81.311 88.0442 81.1721 88.0442C81.0679 88.0442 80.9638 88.0442 80.8249 88.0808C80.7207 88.1174 80.5818 88.154 80.4776 88.2273C80.3735 88.3005 80.2693 88.3737 80.1651 88.4835C80.0263 88.63 79.9221 88.8131 79.8526 88.9961C79.8526 89.0327 79.8179 89.0693 79.8179 89.106C79.7832 89.2524 79.7832 89.3989 79.7832 89.5453C79.7832 89.6918 79.8179 89.8382 79.8874 90.0213C79.9221 90.0579 79.9221 90.1311 79.9568 90.1677C80.061 90.3874 80.2346 90.6071 80.4429 90.8267C80.4776 90.8634 80.5471 90.9366 80.5818 90.9732C80.929 91.2661 81.2415 91.4858 81.5193 91.559C81.5888 91.5956 81.6582 91.5956 81.7276 91.5956C81.7624 91.5956 81.8318 91.5956 81.8665 91.5956C82.2138 91.5956 82.5263 91.4492 82.8388 91.1196C82.9776 90.9732 83.0818 90.8267 83.1513 90.7169C83.1513 90.7169 83.1513 90.6803 83.186 90.6803C83.2207 90.5338 83.2554 90.3874 83.2901 90.2776C83.2554 90.2043 83.2554 90.0945 83.2207 90.0213Z" fill="#666666"/>
<path d="M86.2766 87.2384L86.2419 87.2018C86.2072 87.1652 86.1725 87.1652 86.1378 87.1286C86.103 87.092 86.0683 87.092 86.0336 87.0554C85.9989 87.0554 85.9641 87.0188 85.9294 87.0554C85.8947 87.0554 85.86 87.092 85.8253 87.092H85.7905H85.7558L84.6447 86.7625L84.6794 86.6893C84.7141 86.616 84.7141 86.5428 84.7141 86.4696C84.7141 86.3964 84.7489 86.3231 84.7141 86.2133C84.7141 86.1401 84.6794 86.0302 84.61 85.9204C84.5753 85.8106 84.4711 85.7373 84.4016 85.6275C84.2628 85.481 84.1239 85.4078 83.985 85.3712C83.8461 85.3346 83.6725 85.3346 83.5336 85.3712C83.3947 85.4078 83.2558 85.481 83.1169 85.5909C82.978 85.7007 82.8391 85.8106 82.735 85.957L82.0753 86.6526C82.0058 86.7259 81.9711 86.7991 82.0058 86.8723C82.0405 86.9455 82.0753 87.0188 82.1447 87.0554C82.1794 87.092 82.2141 87.1286 82.2836 87.1652C82.3183 87.2018 82.3878 87.2018 82.4225 87.1652L83.0475 87.7876L83.985 88.7029L84.1239 88.8494L84.1586 88.886C84.1586 88.9592 84.1586 88.9958 84.1586 89.0324C84.1933 89.069 84.228 89.1057 84.2628 89.1423C84.3322 89.1789 84.3669 89.2521 84.4016 89.2521C84.4364 89.2521 84.4711 89.2887 84.5405 89.2521C84.5753 89.2521 84.6447 89.2155 84.6794 89.1789C84.7141 89.1423 84.7836 89.069 84.8878 88.9958C84.9225 88.9592 84.9572 88.9226 84.9919 88.886C85.0266 88.8494 85.0266 88.8128 85.0614 88.7761C85.0614 88.7395 85.0961 88.7029 85.0961 88.6663C85.0961 88.6297 85.0614 88.5931 85.0614 88.5565L84.9919 88.4832C84.9572 88.4466 84.9225 88.41 84.853 88.3734C84.8183 88.3368 84.7489 88.3368 84.7141 88.3368L84.5405 88.1903L83.985 87.6412L84.2975 87.3117L85.1655 87.6046H85.2003L85.4086 87.6778C85.4086 87.7144 85.4086 87.7144 85.4086 87.751C85.4086 87.7876 85.4433 87.7876 85.4433 87.8242C85.5128 87.8975 85.5475 87.9341 85.6169 87.9707C85.6516 88.0073 85.7211 88.0073 85.7558 88.0073C85.7905 88.0073 85.86 87.9707 85.9294 87.9341C85.9989 87.8974 86.0683 87.8242 86.1725 87.7144C86.2072 87.6778 86.2419 87.6412 86.2766 87.6046C86.3114 87.5679 86.3461 87.5313 86.3461 87.4947C86.3808 87.4581 86.3808 87.4215 86.3808 87.3849C86.3114 87.3117 86.3114 87.275 86.2766 87.2384ZM82.8739 86.6893L83.2558 86.3231C83.3947 86.1767 83.4989 86.1035 83.6378 86.1035C83.7419 86.1035 83.8461 86.1401 83.9503 86.2133C84.0544 86.3231 84.0891 86.433 84.0891 86.5428C84.0891 86.6526 84.0197 86.7991 83.8808 86.9455L83.5336 87.3117L82.8739 86.6893Z" fill="#666666"/>
<path d="M88.8455 84.5672L88.8108 84.5306C88.776 84.5306 88.776 84.494 88.7413 84.494C88.7066 84.4574 88.7066 84.4574 88.7066 84.4574C88.6719 84.4208 88.6372 84.4208 88.6024 84.4208C88.5677 84.4208 88.533 84.4208 88.4983 84.4208C88.4635 84.4208 88.4288 84.4574 88.3594 84.494C88.3247 84.5306 88.2899 84.5672 88.2552 84.6038C88.2205 84.6405 88.2205 84.6405 88.1858 84.7137C88.151 84.7503 88.151 84.7503 88.151 84.7869C88.1163 84.8235 88.1163 84.8967 88.1163 84.9334L87.3872 85.7022L86.658 85.0066L86.6233 84.97L86.8316 84.7503L87.0052 84.5672C87.0399 84.5672 87.0747 84.5672 87.1094 84.5672C87.1441 84.5672 87.1441 84.5672 87.1788 84.5306C87.2135 84.5306 87.2135 84.494 87.2135 84.494L87.283 84.4208C87.3524 84.3476 87.3872 84.3109 87.4219 84.2743C87.4566 84.2377 87.4913 84.2011 87.4913 84.1279C87.4913 84.0913 87.4913 84.0181 87.4566 83.9814C87.4219 83.9448 87.3872 83.8716 87.3177 83.7984C87.283 83.7618 87.2483 83.7252 87.1788 83.6885C87.1441 83.6519 87.1094 83.6519 87.0747 83.6153C87.0399 83.6153 87.0052 83.6153 86.9705 83.6153C86.9358 83.6153 86.901 83.6519 86.8316 83.6885L86.7274 83.7618C86.6927 83.7984 86.6233 83.8716 86.5885 83.9082C86.5538 83.9448 86.5538 84.018 86.5538 84.0913L86.1719 84.4574L85.5469 83.835L85.8941 83.4689L86.276 83.0661C86.3455 83.0661 86.4149 83.0661 86.4497 83.0295C86.4844 82.9929 86.5538 82.9563 86.5885 82.8831C86.6233 82.8465 86.658 82.8098 86.6927 82.7732C86.6927 82.7366 86.7274 82.7366 86.7274 82.7C86.7274 82.7 86.7274 82.6634 86.7622 82.6634C86.7622 82.6268 86.7622 82.5902 86.7622 82.5536C86.7622 82.517 86.7274 82.4803 86.6927 82.4437L86.5191 82.2607C86.4149 82.1508 86.3108 82.1508 86.1719 82.2973L85.6858 82.8098L85.651 82.8465L84.6788 83.835C84.6441 83.8716 84.6094 83.9082 84.6094 83.9448C84.6094 83.9814 84.6094 84.018 84.6094 84.0547C84.6094 84.0913 84.6441 84.1279 84.6441 84.1645C84.6441 84.1645 84.6441 84.2011 84.6788 84.2011C84.7135 84.2377 84.7135 84.2377 84.7483 84.2743C84.783 84.3109 84.8177 84.3476 84.8872 84.3842C84.9219 84.4208 84.9913 84.4208 85.026 84.4208L85.3733 84.7869L85.8941 85.2995L86.7622 86.1782C86.7622 86.2148 86.7622 86.2514 86.7622 86.288C86.7622 86.288 86.7622 86.288 86.7622 86.3246C86.7622 86.3612 86.7969 86.3612 86.7969 86.3978C86.8316 86.4345 86.8663 86.4711 86.901 86.5077C86.9358 86.5443 86.9705 86.5809 87.0052 86.5809C87.0399 86.5809 87.0747 86.5809 87.1094 86.5809C87.1441 86.5809 87.1788 86.5443 87.2483 86.5077L87.6649 86.0683L88.533 85.1896L88.5677 85.153L88.6372 85.0798C88.6719 85.0432 88.7066 84.97 88.7413 84.9334C88.776 84.8967 88.776 84.8601 88.776 84.8235C88.9149 84.6405 88.8802 84.6038 88.8455 84.5672Z" fill="#666666"/>
<path d="M91.0679 81.6389C91.0332 81.4924 90.9638 81.346 90.8943 81.1995C90.8249 81.0531 90.7554 80.9432 90.6513 80.7968C90.5471 80.6504 90.4429 80.5405 90.3388 80.4673C90.1999 80.3208 90.0263 80.211 89.8526 80.1012C89.679 79.9913 89.4707 79.9547 89.2971 79.9181C89.0888 79.8815 88.8804 79.9181 88.6721 79.9913C88.4638 80.0646 88.2554 80.211 88.0124 80.4307L87.3874 81.0897C87.3179 81.1629 87.3179 81.1995 87.2832 81.2728C87.2832 81.3094 87.2832 81.3826 87.3526 81.4192L87.3874 81.4558L87.4221 81.4924C87.4568 81.529 87.4915 81.5657 87.561 81.6023C87.5957 81.6389 87.6651 81.6389 87.6999 81.6023L88.811 82.7006L89.2971 83.1766H89.3318L89.4707 83.323C89.4707 83.3963 89.4707 83.4329 89.4707 83.4695C89.5054 83.5061 89.5401 83.5427 89.5749 83.5793C89.6443 83.6525 89.7138 83.6892 89.7832 83.7258C89.8526 83.7258 89.8874 83.7258 89.9568 83.6892C89.9568 83.6892 89.9915 83.6892 89.9915 83.6525L90.0263 83.6159L90.7207 82.8837C90.8596 82.7372 90.9638 82.5908 91.0332 82.4443C91.0332 82.4077 91.0679 82.3711 91.0679 82.3345C91.1026 82.2247 91.1374 82.1148 91.1374 81.9684C91.1374 81.9318 91.1026 81.7853 91.0679 81.6389ZM88.2207 81.0897L88.3943 80.9066C88.6026 80.687 88.8457 80.5771 89.0888 80.5771C89.3318 80.5771 89.5749 80.7236 89.8526 81.0165C90.0263 81.1995 90.1651 81.346 90.2693 81.529C90.3735 81.6755 90.4082 81.8219 90.4429 81.9684C90.4776 82.1148 90.4429 82.2247 90.4082 82.3345C90.3735 82.4443 90.304 82.5542 90.1999 82.6274L89.9915 82.8471L88.2207 81.0897Z" fill="#666666"/>
<path d="M93.0486 80.1747L92.9792 80.1015C92.9444 80.0649 92.9097 80.0283 92.8403 79.9916C92.8055 79.955 92.7361 79.955 92.7014 79.9916L92.0417 79.3326L92.0069 79.296L91.7292 79.0031L91.6597 78.9299L91.5903 78.8567L91.0347 78.3075C91.0694 78.2343 91.0347 78.161 90.9653 78.0878L90.7569 77.9047C90.6875 77.8681 90.5833 77.9047 90.4792 77.978L90.1667 78.3075C90.0972 78.3807 90.0625 78.4173 90.0625 78.4905C90.0625 78.5638 90.0972 78.6004 90.1319 78.637L90.2014 78.7102C90.2361 78.7468 90.2708 78.7834 90.3403 78.82C90.375 78.8567 90.4444 78.8567 90.4792 78.82L90.6528 79.0031L91.9375 80.2845L92.2153 80.5408C92.1805 80.614 92.2153 80.6873 92.2847 80.7605C92.2847 80.7605 92.2847 80.7971 92.3194 80.7971C92.3194 80.7971 92.3194 80.8337 92.3542 80.8337C92.4236 80.8703 92.4583 80.9069 92.493 80.9436C92.5278 80.9802 92.5625 80.9802 92.6319 80.9436C92.6667 80.9436 92.7361 80.9069 92.7708 80.8337C92.8055 80.7971 92.875 80.7239 92.9444 80.6507C92.9792 80.614 93.0139 80.5774 93.0486 80.5408C93.0833 80.5042 93.118 80.4676 93.118 80.431C93.118 80.3944 93.1528 80.3578 93.1528 80.3212C93.118 80.2479 93.0833 80.2113 93.0486 80.1747Z" fill="#666666"/>
<path d="M95.0957 78.0511L95.0263 77.9779C94.9915 77.9413 94.9568 77.9047 94.8874 77.8681C94.8526 77.8315 94.7832 77.8315 94.7138 77.8681L92.9776 76.1107L93.186 75.891C93.2554 75.891 93.2901 75.891 93.3596 75.8544C93.3943 75.8178 93.4638 75.7812 93.4985 75.708C93.5679 75.6347 93.6374 75.5615 93.6721 75.4883C93.7068 75.4151 93.6721 75.3418 93.6374 75.2686L93.6026 75.232L93.5679 75.1954L93.5332 75.1588C93.5332 75.1588 93.4985 75.1588 93.4985 75.1222L93.4638 75.0855L93.429 75.0489C93.3943 75.0123 93.3249 74.9757 93.2554 74.9757C93.186 74.9757 93.1165 75.0123 93.0818 75.0855L91.5193 76.7331C91.4846 76.7697 91.4499 76.8063 91.4499 76.8063C91.4151 76.8429 91.4151 76.8795 91.4499 76.9162C91.4846 76.9894 91.5193 77.0626 91.554 77.0992L91.5888 77.1358L91.6582 77.2091C91.7276 77.2823 91.7971 77.2823 91.8665 77.2457C91.936 77.209 92.0054 77.1724 92.0749 77.0992C92.1096 77.0626 92.179 76.9894 92.2138 76.9528C92.2485 76.9162 92.2485 76.8429 92.2485 76.7697L92.4568 76.55L94.1929 78.3074C94.1929 78.3806 94.1929 78.4173 94.2276 78.4539C94.2624 78.4905 94.2971 78.5271 94.3318 78.5637C94.4013 78.6369 94.436 78.6735 94.4707 78.6735C94.5054 78.7101 94.5401 78.7101 94.6096 78.6735C94.6443 78.6735 94.7138 78.6369 94.7485 78.5637C94.7832 78.5271 94.8526 78.4539 94.9221 78.3806C94.9568 78.344 94.9915 78.3074 95.0263 78.2708C95.061 78.2342 95.0957 78.1976 95.0957 78.161C95.0957 78.1244 95.1304 78.0877 95.1304 78.0511C95.1304 78.1244 95.0957 78.0877 95.0957 78.0511Z" fill="#666666"/>
<path d="M99.6777 72.8516C99.643 72.7784 99.6082 72.7051 99.6082 72.6319C99.6082 72.5953 99.5735 72.5587 99.5388 72.5221C99.5041 72.4855 99.4693 72.4855 99.4346 72.4488C99.3999 72.4488 99.3652 72.4488 99.2957 72.4488C99.261 72.4488 99.1916 72.4488 99.1568 72.4855C99.1221 72.5221 99.0874 72.5221 99.0527 72.5587C98.9832 72.6319 98.9485 72.7051 98.9485 72.7784C98.9485 72.8516 98.9485 72.9248 98.9832 72.998C98.9832 73.0346 99.018 73.0713 99.018 73.1079C99.018 73.1445 99.018 73.2177 99.018 73.2543C99.018 73.2909 99.018 73.3642 98.9832 73.4008C98.9485 73.474 98.9138 73.5106 98.8791 73.5472C98.8096 73.6204 98.7402 73.6571 98.6707 73.6937C98.6013 73.7303 98.4971 73.7669 98.393 73.7303C98.2888 73.7303 98.1499 73.657 98.011 73.5838C97.8721 73.5106 97.6985 73.3642 97.4902 73.1811L97.4555 73.1445C97.1777 72.8516 97.0041 72.5953 96.9346 72.339C96.8999 72.1193 96.9346 71.8997 97.0735 71.7532C97.143 71.68 97.1777 71.6434 97.2471 71.6434C97.3166 71.6068 97.386 71.6068 97.4207 71.6068C97.4207 71.6434 97.4555 71.68 97.4902 71.7166L97.6291 71.863C97.6638 71.8997 97.7332 71.9363 97.8027 71.8997C97.8721 71.8997 97.9416 71.863 97.9763 71.7898L98.2888 71.4969C98.393 71.3871 98.393 71.2406 98.3235 71.1674C98.2888 71.1308 98.2888 71.1308 98.2888 71.1308C98.2888 71.1308 98.2888 71.0942 98.2541 71.0942L98.2193 71.0576C98.2193 71.0576 98.1846 71.021 98.1499 70.9843C98.1152 70.9477 98.0805 70.9477 98.0457 70.9477C98.011 70.9477 97.9763 70.9477 97.9416 70.9477C97.8374 70.9111 97.768 70.8745 97.6291 70.8745C97.5249 70.8745 97.4207 70.8745 97.2818 70.9111C97.1777 70.9477 97.0388 70.9843 96.9346 71.0576C96.8305 71.1308 96.7263 71.204 96.6221 71.3139C96.4832 71.4603 96.3791 71.6434 96.3096 71.8264C96.2402 72.0095 96.2055 72.1926 96.2402 72.4122C96.2749 72.5953 96.3096 72.815 96.4485 73.0346C96.5527 73.2543 96.7263 73.474 96.9346 73.6937C97.386 74.133 97.8374 74.3893 98.2193 74.4625C98.6013 74.4991 98.9832 74.3527 99.3305 73.9866C99.4693 73.8401 99.5735 73.6571 99.643 73.5472C99.7124 73.4008 99.7471 73.2543 99.7471 73.1445C99.7124 73.0713 99.7124 72.9614 99.6777 72.8516Z" fill="#666666"/>
<path d="M102.875 70.1064C102.875 70.0698 102.84 70.0698 102.84 70.0332C102.805 69.9966 102.805 69.9966 102.805 69.96C102.805 69.9233 102.77 69.9233 102.77 69.9233C102.736 69.8867 102.666 69.8501 102.632 69.8135C102.597 69.7769 102.527 69.7769 102.458 69.8135L100.27 68.8616L99.9926 68.7518C99.9926 68.7151 99.9579 68.6785 99.9579 68.6419C99.9232 68.6053 99.9232 68.5687 99.8885 68.5687C99.8537 68.5321 99.7843 68.4955 99.7496 68.4589C99.7148 68.4222 99.6801 68.4222 99.6107 68.4589C99.576 68.4589 99.5412 68.4955 99.4718 68.5321C99.4371 68.5687 99.3676 68.6419 99.2982 68.7151C99.2635 68.7518 99.2635 68.7518 99.2287 68.7884C99.194 68.825 99.194 68.825 99.1593 68.8616C99.1246 68.8982 99.0898 68.9714 99.0898 69.0447C99.0898 69.1179 99.0898 69.1545 99.1593 69.1911L99.2287 69.2643C99.2635 69.3009 99.2635 69.3009 99.2982 69.3376C99.3329 69.3742 99.3676 69.3742 99.4023 69.3742L100.513 71.8272C100.479 71.9004 100.479 71.937 100.513 71.9736C100.548 72.0102 100.583 72.0835 100.618 72.1201C100.652 72.1567 100.722 72.1933 100.757 72.2299C100.791 72.2665 100.826 72.2665 100.861 72.2665C100.895 72.2665 100.93 72.2299 101 72.1933C101.034 72.1567 101.104 72.1201 101.138 72.0469C101.173 72.0102 101.173 72.0102 101.208 71.9736C101.243 71.937 101.243 71.937 101.277 71.9004L101.312 71.8638C101.382 71.7906 101.416 71.7173 101.382 71.6441C101.347 71.5709 101.312 71.4977 101.243 71.4611C101.208 71.4245 101.208 71.4245 101.173 71.3878C101.138 71.3512 101.104 71.3512 101.034 71.3512L100.826 70.9485L101.52 70.2529L101.937 70.4359C101.937 70.4725 101.972 70.5458 101.972 70.5824L102.007 70.619C102.041 70.6556 102.076 70.6922 102.111 70.7288C102.145 70.7654 102.18 70.7654 102.215 70.7654C102.25 70.7654 102.319 70.7654 102.354 70.7288C102.388 70.6922 102.458 70.6556 102.527 70.5824C102.562 70.5458 102.562 70.5458 102.597 70.5091C102.632 70.4725 102.632 70.4725 102.666 70.4359L102.701 70.3993C102.77 70.3261 102.77 70.2529 102.805 70.2162C102.875 70.143 102.875 70.143 102.875 70.1064ZM100.548 70.3993L100.132 69.5938L100.965 69.9966L100.548 70.3993Z" fill="#666666"/>
<path d="M105.546 67.1756L105.511 67.139C105.477 67.1023 105.442 67.1023 105.407 67.0657C105.373 67.0291 105.338 67.0291 105.303 66.9925C105.268 66.9925 105.234 66.9559 105.199 66.9925C105.164 66.9925 105.13 67.0291 105.095 67.0291L103.914 66.6996L103.949 66.6264C103.984 66.5532 103.984 66.5165 103.984 66.4067C103.984 66.3335 103.984 66.2603 103.984 66.1504C103.984 66.0772 103.949 65.9674 103.88 65.8575C103.845 65.7477 103.775 65.6745 103.671 65.5646C103.532 65.4182 103.393 65.345 103.255 65.3083C103.116 65.2717 102.942 65.2717 102.803 65.3083C102.664 65.345 102.525 65.4182 102.386 65.528C102.248 65.6379 102.109 65.7477 102.005 65.8941L101.345 66.5898C101.275 66.663 101.241 66.7362 101.275 66.8094C101.31 66.8827 101.345 66.9559 101.414 66.9925C101.449 67.0291 101.484 67.0657 101.553 67.1023C101.588 67.139 101.657 67.139 101.692 67.1023L103.428 68.8231C103.428 68.8963 103.428 68.9329 103.428 68.9696C103.463 69.0062 103.498 69.0428 103.532 69.0794C103.602 69.116 103.636 69.1892 103.671 69.1892C103.706 69.1892 103.741 69.2258 103.81 69.1892C103.845 69.1892 103.914 69.1526 103.949 69.116C103.984 69.0794 104.053 69.0062 104.157 68.9329C104.192 68.8963 104.227 68.8597 104.261 68.8231C104.296 68.7865 104.296 68.7499 104.331 68.7133C104.331 68.6767 104.366 68.6401 104.366 68.6034C104.366 68.5668 104.331 68.5302 104.296 68.4936L104.227 68.4204C104.192 68.3838 104.157 68.3472 104.088 68.3105C104.053 68.2739 103.984 68.2739 103.949 68.2739L103.22 67.5783L103.532 67.2488L104.643 67.5783C104.643 67.6149 104.643 67.6149 104.643 67.6515C104.643 67.6881 104.678 67.6881 104.678 67.7247C104.748 67.798 104.782 67.8346 104.852 67.8712C104.886 67.9078 104.956 67.9078 104.991 67.9078C105.025 67.9078 105.095 67.8712 105.164 67.8346C105.234 67.798 105.303 67.6881 105.407 67.6149C105.442 67.5783 105.477 67.5417 105.511 67.5051C105.546 67.4685 105.581 67.4318 105.581 67.3952C105.616 67.3586 105.616 67.322 105.616 67.2854C105.581 67.2488 105.581 67.2122 105.546 67.1756ZM103.116 66.8094L102.768 67.1756L102.178 66.5898L102.56 66.2236C102.699 66.0772 102.803 66.004 102.942 66.004C103.046 66.004 103.15 66.0406 103.255 66.1138C103.359 66.2236 103.393 66.3335 103.393 66.4433C103.324 66.5532 103.255 66.663 103.116 66.8094Z" fill="#666666"/>
<path d="M107.7 64.2837C107.666 64.1373 107.596 63.9908 107.527 63.8444C107.457 63.6979 107.388 63.5881 107.284 63.4416C107.179 63.3318 107.075 63.1854 106.971 63.1121C106.832 62.9657 106.659 62.8558 106.485 62.746C106.311 62.6362 106.103 62.5629 105.895 62.5629C105.686 62.5263 105.478 62.5629 105.27 62.6362C105.061 62.7094 104.853 62.8558 104.61 63.0755L103.985 63.7345C103.916 63.8078 103.916 63.8444 103.881 63.9176C103.881 63.9908 103.916 64.0274 103.95 64.064L103.985 64.1007L104.02 64.1373C104.054 64.1739 104.089 64.2105 104.159 64.2471C104.193 64.2837 104.263 64.2837 104.298 64.2471L106.034 65.9679C106.034 66.0411 106.034 66.0777 106.068 66.1143C106.103 66.1509 106.138 66.1876 106.173 66.2242C106.242 66.2974 106.311 66.334 106.381 66.3706C106.45 66.3706 106.52 66.3706 106.589 66.2974L107.284 65.5651C107.423 65.4187 107.527 65.2722 107.596 65.1258C107.666 64.9794 107.7 64.8329 107.7 64.6865C107.735 64.6132 107.735 64.4668 107.7 64.2837ZM107.041 64.9794C107.006 65.0892 106.936 65.199 106.832 65.2722L106.624 65.4919L104.853 63.7345L105.027 63.5515C105.235 63.3318 105.478 63.222 105.721 63.222C105.964 63.222 106.207 63.3684 106.485 63.6613C106.659 63.8444 106.798 63.9908 106.902 64.1739C107.006 64.3203 107.041 64.4668 107.075 64.6132C107.075 64.7597 107.075 64.8695 107.041 64.9794Z" fill="#666666"/>
<path d="M120.34 59.7813C121.763 61.2091 121.763 63.5523 120.34 65.0534L117.11 68.4217C115.687 69.9228 113.36 69.9961 111.937 68.5682C110.513 67.1403 110.513 64.7971 111.937 63.296L115.166 59.9277C116.59 58.39 118.916 58.3534 120.34 59.7813Z" fill="white"/>
<path d="M127.146 66.885C128.57 68.3129 128.57 70.6561 127.146 72.1572L123.917 75.5255C122.493 77.0266 120.167 77.0998 118.743 75.6719C117.32 74.2441 117.32 71.9009 118.743 70.3998L121.938 67.0315C123.396 65.4938 125.723 65.4571 127.146 66.885Z" fill="#EF9F20"/>
<path opacity="0.4" d="M86.7305 51.7281L84.3694 54.9866L82.286 57.9155L78.7444 62.8582L76.5916 65.897L69.3346 76.002L67.1819 78.9676H65.4805L71.1749 69.4484L80.5152 53.7784L82.5291 50.41L86.7305 51.7281Z" fill="#999999"/>
<path opacity="0.58" d="M109.194 52.7902L106.555 55.5362L104.784 57.3668L103.847 58.3553L101.833 60.4422L98.7424 63.6641L92.041 70.657C91.798 70.8767 91.5549 71.133 91.3466 71.3892L88.7077 74.1352L84.0896 78.968H82.3535L86.6591 73.6958L95.6521 62.6755L98.3604 59.3438L100.965 56.1586L101.208 56.2318L101.034 56.0853L103.499 53.0465L105.895 50.1176L109.194 52.7902Z" fill="#7D7D7D"/>
<path d="M137.389 80.1389V136.778C137.389 137.437 136.903 137.95 136.278 137.95H62.1111C61.4861 137.95 61 137.437 61 136.778V80.1389C61 79.4799 61.4861 78.9673 62.1111 78.9673H136.278C136.868 78.9673 137.389 79.5165 137.389 80.1389Z" fill="#474C69"/>
<g opacity="0.48">
<path opacity="0.48" d="M65.1319 82.738H62.1806C61.9722 82.738 61.7986 82.9211 61.7986 83.1408C61.7986 83.3604 61.9722 83.5435 62.1806 83.5435H65.1667C65.375 83.5435 65.5486 83.3604 65.5486 83.1408C65.5139 82.9211 65.3403 82.738 65.1319 82.738ZM71.1042 82.738H68.1181C67.9097 82.738 67.7708 82.9211 67.7708 83.1408C67.7708 83.1774 67.7708 83.214 67.7708 83.2506C67.8056 83.4337 67.9444 83.5435 68.1181 83.5435H71.1042C71.3125 83.5435 71.4861 83.3604 71.4861 83.1408C71.4861 82.9211 71.3125 82.738 71.1042 82.738ZM77.0764 82.738H74.0903C73.8819 82.738 73.7083 82.9211 73.7083 83.1408C73.7083 83.3604 73.8819 83.5435 74.0903 83.5435H77.0764C77.2847 83.5435 77.4583 83.3604 77.4583 83.1408C77.4236 82.9211 77.2847 82.738 77.0764 82.738ZM83.0139 82.738H80.0278C79.8194 82.738 79.6458 82.9211 79.6458 83.1408C79.6458 83.2506 79.6805 83.3604 79.7847 83.4337C79.8542 83.5069 79.9236 83.5435 80.0278 83.5435H83.0139H83.0486C83.2222 83.5435 83.3958 83.3604 83.3958 83.1408C83.3958 82.9211 83.2222 82.738 83.0139 82.738ZM88.9861 82.738H86C85.8958 82.738 85.8264 82.7747 85.7569 82.8479L85.7222 82.8845C85.6528 82.9577 85.618 83.0309 85.618 83.1408C85.618 83.3238 85.7569 83.4703 85.8958 83.5069C85.9305 83.5069 85.9653 83.5069 85.9653 83.5069H88.9514C89.125 83.5069 89.2639 83.3971 89.2986 83.214V83.1774C89.2986 83.1408 89.2986 83.1408 89.2986 83.1042C89.368 82.9211 89.1944 82.738 88.9861 82.738ZM94.9583 82.738H91.9722C91.7639 82.738 91.5903 82.9211 91.5903 83.1408C91.5903 83.3604 91.7639 83.5435 91.9375 83.5435H94.9236C94.993 83.5435 95.0278 83.5435 95.0972 83.5069C95.2361 83.4337 95.3055 83.3238 95.3055 83.1774C95.3055 82.9211 95.1319 82.738 94.9583 82.738ZM100.896 82.738H97.9097C97.7014 82.738 97.5278 82.9211 97.5278 83.1408C97.5278 83.3604 97.7014 83.5435 97.9097 83.5435H100.896C101.104 83.5435 101.278 83.3604 101.278 83.1408C101.278 82.9211 101.104 82.738 100.896 82.738ZM106.868 82.738H103.882C103.847 82.738 103.847 82.738 103.812 82.738C103.639 82.7746 103.5 82.9211 103.5 83.1042C103.5 83.214 103.535 83.3238 103.604 83.3971C103.674 83.4703 103.778 83.5069 103.847 83.5069H106.833C106.868 83.5069 106.937 83.5069 106.972 83.4703C107.111 83.3971 107.215 83.2872 107.215 83.1042C107.25 82.9211 107.076 82.738 106.868 82.738ZM112.806 82.738H109.819C109.611 82.738 109.472 82.8845 109.437 83.1042V83.1408C109.437 83.3604 109.611 83.5435 109.819 83.5435H112.806C113.014 83.5435 113.187 83.3604 113.187 83.1408C113.187 82.9211 113.014 82.738 112.806 82.738ZM118.778 82.738H115.792C115.583 82.738 115.41 82.9211 115.41 83.1408C115.41 83.3604 115.583 83.5435 115.792 83.5435H118.778C118.986 83.5435 119.16 83.3604 119.16 83.1408C119.16 82.9211 118.986 82.738 118.778 82.738ZM124.889 82.7746C124.854 82.738 124.819 82.738 124.75 82.738H121.764C121.556 82.738 121.382 82.9211 121.382 83.1408C121.382 83.3604 121.556 83.5435 121.764 83.5435H124.75C124.958 83.5435 125.132 83.3604 125.132 83.1408C125.097 82.9577 125.028 82.8113 124.889 82.7746ZM130.722 82.738H127.736C127.528 82.738 127.354 82.9211 127.354 83.1408C127.354 83.3604 127.528 83.5435 127.736 83.5435H130.722C130.931 83.5435 131.104 83.3604 131.104 83.1408C131.069 82.9211 130.896 82.738 130.722 82.738ZM133.187 83.7266C132.979 83.7266 132.806 83.9096 132.806 84.1293V87.278C132.806 87.4976 132.979 87.6807 133.187 87.6807C133.396 87.6807 133.569 87.4976 133.569 87.278V84.1293C133.569 83.9096 133.396 83.7266 133.187 83.7266ZM133.187 90.0239C132.979 90.0239 132.806 90.2069 132.806 90.4266V93.5753C132.806 93.7949 132.979 93.978 133.187 93.978C133.396 93.978 133.569 93.7949 133.569 93.5753V90.4266C133.569 90.2069 133.396 90.0239 133.187 90.0239ZM133.187 96.2846C132.979 96.2846 132.806 96.4676 132.806 96.6873V99.836C132.806 100.056 132.979 100.239 133.187 100.239C133.396 100.239 133.569 100.056 133.569 99.836V96.6873C133.569 96.4676 133.396 96.2846 133.187 96.2846ZM133.187 102.582C132.979 102.582 132.806 102.765 132.806 102.985V106.133C132.806 106.353 132.979 106.536 133.187 106.536C133.396 106.536 133.569 106.353 133.569 106.133V102.985C133.569 102.765 133.396 102.582 133.187 102.582ZM133.187 108.879C132.979 108.879 132.806 109.062 132.806 109.282V112.431C132.806 112.65 132.979 112.833 133.187 112.833C133.396 112.833 133.569 112.65 133.569 112.431V109.282C133.569 109.062 133.396 108.879 133.187 108.879ZM133.187 115.14C132.979 115.14 132.806 115.323 132.806 115.543V118.691C132.806 118.911 132.979 119.094 133.187 119.094C133.396 119.094 133.569 118.911 133.569 118.691V115.543C133.569 115.323 133.396 115.14 133.187 115.14ZM133.187 121.437C132.979 121.437 132.806 121.62 132.806 121.84V124.989C132.806 125.208 132.979 125.391 133.187 125.391C133.396 125.391 133.569 125.208 133.569 124.989V121.84C133.569 121.62 133.396 121.437 133.187 121.437ZM133.187 127.734C132.979 127.734 132.806 127.918 132.806 128.137V131.286C132.806 131.506 132.979 131.689 133.187 131.689C133.396 131.689 133.569 131.506 133.569 131.286V128.137C133.569 127.918 133.396 127.734 133.187 127.734ZM61 133.666V133.995C61.0347 133.959 61.0347 133.885 61.0347 133.849C61.0347 133.739 61.0347 133.702 61 133.666ZM66.625 133.409H63.6389C63.4306 133.409 63.2569 133.592 63.2569 133.812C63.2569 134.032 63.4306 134.215 63.6389 134.215H66.625C66.8333 134.215 67.0069 134.032 67.0069 133.812C67.0069 133.592 66.8333 133.409 66.625 133.409ZM72.5972 133.409H69.6111C69.5417 133.409 69.4722 133.409 69.4375 133.446C69.3333 133.519 69.2292 133.629 69.2292 133.775C69.2292 133.995 69.4028 134.178 69.6111 134.178H72.5972C72.8056 134.178 72.9792 133.995 72.9792 133.775C72.9444 133.592 72.8056 133.409 72.5972 133.409ZM78.9167 133.702C78.8819 133.556 78.743 133.409 78.5694 133.409H75.5833C75.5486 133.409 75.5139 133.409 75.5139 133.409C75.3403 133.446 75.2361 133.592 75.2361 133.775C75.2361 133.812 75.2361 133.849 75.2361 133.849C75.2708 134.032 75.4097 134.142 75.5833 134.142H78.5694C78.7778 134.142 78.9514 133.959 78.9514 133.739C78.9167 133.776 78.9167 133.739 78.9167 133.702ZM84.5069 133.409H81.5208C81.3125 133.409 81.1389 133.592 81.1389 133.812C81.1389 134.032 81.3125 134.215 81.5208 134.215H84.5069C84.7153 134.215 84.8889 134.032 84.8889 133.812C84.8889 133.592 84.7153 133.409 84.5069 133.409ZM90.4792 133.409H87.493C87.2847 133.409 87.1111 133.592 87.1111 133.812C87.1111 134.032 87.2847 134.215 87.493 134.215H90.4792C90.6875 134.215 90.8611 134.032 90.8611 133.812C90.8264 133.592 90.6528 133.409 90.4792 133.409ZM96.4167 133.409H93.4305C93.2222 133.409 93.0486 133.592 93.0486 133.812C93.0486 134.032 93.2222 134.215 93.4305 134.215H96.4167C96.625 134.215 96.7986 134.032 96.7986 133.812C96.7986 133.592 96.625 133.409 96.4167 133.409ZM102.389 133.409H99.4028C99.1944 133.409 99.0208 133.592 99.0208 133.812C99.0208 134.032 99.1944 134.215 99.4028 134.215H102.389C102.597 134.215 102.771 134.032 102.771 133.812C102.771 133.592 102.597 133.409 102.389 133.409ZM108.326 133.409H105.34C105.132 133.409 104.958 133.592 104.958 133.812C104.958 134.032 105.132 134.215 105.34 134.215H108.326C108.535 134.215 108.708 134.032 108.708 133.812C108.708 133.592 108.535 133.409 108.326 133.409ZM114.299 133.409H111.312C111.104 133.409 110.931 133.592 110.931 133.812C110.931 134.032 111.104 134.215 111.312 134.215H114.299C114.507 134.215 114.681 134.032 114.681 133.812C114.681 133.592 114.507 133.409 114.299 133.409ZM120.271 133.409H117.285C117.076 133.409 116.903 133.592 116.903 133.812C116.903 134.032 117.076 134.215 117.285 134.215H120.271C120.479 134.215 120.653 134.032 120.653 133.812C120.618 133.592 120.479 133.409 120.271 133.409ZM126.243 133.409H123.257C123.049 133.409 122.875 133.592 122.875 133.812C122.875 134.032 123.049 134.215 123.257 134.215H126.243C126.451 134.215 126.625 134.032 126.625 133.812C126.59 133.592 126.417 133.409 126.243 133.409ZM132.146 133.409C132.111 133.409 132.076 133.409 132.042 133.409H129.194C128.986 133.409 128.812 133.592 128.812 133.812C128.812 134.032 128.986 134.215 129.194 134.215H132.042C132.111 134.215 132.146 134.215 132.215 134.215C132.424 134.178 132.562 133.995 132.562 133.775C132.528 133.556 132.354 133.409 132.146 133.409Z" fill="#9A9FB9"/>
</g>
<path d="M140.999 103.973V112.943C140.999 114.737 140.062 116.275 138.673 117.081C138.256 117.3 137.84 117.483 137.388 117.556C137.145 117.593 136.867 117.63 136.59 117.63H115.513C113.43 117.63 111.694 116.129 111.208 114.078C111.208 114.005 111.173 113.968 111.173 113.895C111.173 113.859 111.173 113.859 111.173 113.859C111.138 113.566 111.104 113.273 111.104 112.98V103.973C111.104 101.374 113.083 99.287 115.548 99.287H136.624C136.902 99.287 137.18 99.3236 137.423 99.3602C139.437 99.7996 140.999 101.703 140.999 103.973Z" fill="#474C69"/>
<path opacity="0.58" d="M138.709 116.97C138.709 117.007 138.674 117.044 138.674 117.044C138.258 117.263 137.841 117.446 137.39 117.519V118.508C136.66 119.021 135.792 119.35 134.855 119.35H113.778C111.313 119.35 109.334 117.263 109.334 114.664V105.694C109.334 103.936 110.237 102.399 111.591 101.593C111.244 102.252 111.035 103.058 111.035 103.863V112.833C111.035 113.163 111.07 113.456 111.14 113.748C111.14 113.785 111.14 113.785 111.14 113.785C111.14 113.858 111.174 113.895 111.174 113.968C111.66 115.982 113.396 117.483 115.48 117.483H136.556C136.834 117.483 137.112 117.446 137.355 117.41C137.841 117.41 138.327 117.227 138.709 116.97Z" fill="#333333"/>
<path d="M126.035 108.477C126.035 112.028 123.292 114.921 119.924 114.921C116.556 114.921 113.812 112.028 113.812 108.477C113.812 104.926 116.556 102.033 119.924 102.033C123.292 102.033 126.035 104.926 126.035 108.477Z" fill="#EF9F20"/>
<path opacity="0.58" d="M123.743 113.493C122.632 114.957 120.931 115.872 119.021 115.872C115.653 115.872 112.91 112.98 112.91 109.429C112.91 107.415 113.778 105.621 115.167 104.413C114.299 105.511 113.813 106.939 113.813 108.477C113.813 112.028 116.556 114.921 119.924 114.921C121.382 114.884 122.702 114.371 123.743 113.493Z" fill="#333333"/>
<path opacity="0.2" d="M126.035 108.147L119.646 114.884C117.355 114.774 115.41 113.309 114.473 111.259L122.598 102.692C124.542 103.68 125.931 105.73 126.035 108.147Z" fill="white"/>
</g>
<defs>
<clipPath id="clip0">
<rect width="80" height="96.9492" fill="white" transform="translate(61 41)"/>
</clipPath>
</defs>
</svg>
